<svg preserveAspectRatio="none" width="100%" height="100%" overflow="visible" style="display: block;" viewBox="0 0 20 20" fill="none" xmlns="http://www.w3.org/2000/svg">
<g id="bonus-alt 1" clip-path="url(#clip0_0_22)">
<path id="Vector" d="M19.3175 8.045C18.9033 7.66917 18.365 7.4725 17.81 7.5025C17.2517 7.52833 16.7367 7.77 16.3608 8.18333L13.2508 11.6025C12.9892 10.6792 12.1383 10 11.1325 10H2.91667C1.30833 10 0 11.3083 0 12.9167V17.0833C0 18.6917 1.30833 20 2.91667 20H7.8875C10.1425 20 12.2975 19.0342 13.7983 17.35L19.47 10.9833C20.2283 10.1317 20.1608 8.81333 19.3175 8.045ZM18.8483 10.4283L13.1767 16.795C11.8333 18.3025 9.90583 19.1667 7.8875 19.1667H2.91667C1.76833 19.1667 0.833333 18.2325 0.833333 17.0833V12.9167C0.833333 11.7675 1.76833 10.8333 2.91667 10.8333H11.1317C11.8858 10.8333 12.5 11.4475 12.5 12.2025C12.5 12.8792 11.995 13.4617 11.3342 13.5558L6.2 14.17C5.97167 14.1967 5.80833 14.4042 5.83583 14.6333C5.86417 14.8608 6.06417 15.0333 6.29917 14.9975L11.4417 14.3825C12.2933 14.2608 12.98 13.6508 13.23 12.8625L16.9758 8.74667C17.2025 8.4975 17.5125 8.35167 17.8483 8.33667C18.18 8.31917 18.5067 8.4375 18.755 8.66333C19.2617 9.12667 19.3033 9.91917 18.8467 10.4308L18.8483 10.4283ZM4.33083 5.65L3.76167 7.47417C3.62167 7.92333 3.77917 8.41417 4.15667 8.6975C4.35 8.8425 4.58083 8.91917 4.8225 8.91917C5.0425 8.91917 5.25667 8.85417 5.44083 8.73083L7.0925 7.62583L8.775 8.72083C9.17083 8.9775 9.68583 8.955 10.0592 8.66917C10.4333 8.38167 10.5842 7.8875 10.4367 7.44L9.84667 5.64333L11.2717 4.48083C11.6275 4.18333 11.76 3.68833 11.6008 3.24917C11.4417 2.81333 11.0217 2.51917 10.5567 2.51917H8.76667L8.12583 0.720833C7.965 0.288333 7.54667 -0.00166667 7.08417 -0.00166667C6.62167 -0.00166667 6.20417 0.289167 6.04083 0.726667L5.40167 2.51917H3.61167C3.14833 2.51917 2.72917 2.81167 2.56917 3.24667C2.40917 3.68167 2.53917 4.17667 2.9 4.4825L4.33167 5.6475L4.33083 5.65ZM3.35 3.53667C3.39 3.4275 3.495 3.35417 3.61083 3.35417H5.69417C5.87 3.35417 6.0275 3.24333 6.08667 3.0775L6.8225 1.01333C6.9025 0.796667 7.265 0.8025 7.34083 1.0075L8.07833 3.07667C8.1375 3.2425 8.295 3.35333 8.47083 3.35333H10.5542C10.6708 3.35333 10.7758 3.42667 10.815 3.53583C10.855 3.64583 10.8217 3.76833 10.7375 3.83917L9.095 5.1775C8.96083 5.28667 8.90833 5.46667 8.9625 5.63083L9.6425 7.70083C9.67917 7.81333 9.6425 7.93583 9.54917 8.0075C9.455 8.07917 9.325 8.085 9.22667 8.02167L7.31417 6.77583C7.17417 6.685 6.99417 6.68583 6.855 6.77917L4.97583 8.0375C4.87833 8.1025 4.745 8.09583 4.65417 8.03C4.56 7.95917 4.52 7.83583 4.55583 7.7225L5.20917 5.62833C5.26 5.46583 5.20667 5.28833 5.07417 5.18083L3.43 3.84333C3.34167 3.7675 3.30833 3.64417 3.34833 3.53583L3.35 3.53667Z" fill="var(--fill-0, #676767)"/>
</g>
<defs>
<clipPath id="clip0_0_22">
<rect width="20" height="20" fill="white"/>
</clipPath>
</defs>
</svg>
