<svg preserveAspectRatio="none" width="100%" height="100%" overflow="visible" style="display: block;" viewBox="0 0 20 20" fill="none" xmlns="http://www.w3.org/2000/svg">
<g id="comment (2) 1">
<path id="Vector" d="M18.9992 8.92763C18.6873 3.92192 14.5215 0 9.51425 0C4.26787 0 0 4.26154 0 9.5C0 14.7385 4.26787 19 9.51425 19H19L18.9992 8.92763ZM18.2075 18.2083H9.51425C4.70487 18.2083 0.791667 14.3015 0.791667 9.5C0.791667 4.69854 4.70408 0.791667 9.51425 0.791667C14.1043 0.791667 17.9241 4.38742 18.2083 8.95296L18.2075 18.2083ZM10.2917 7.125H5.54167V6.33333H10.2917V7.125ZM5.54167 9.5H13.4583V10.2917H5.54167V9.5ZM5.54167 12.6667H13.4583V13.4583H5.54167V12.6667Z" fill="var(--fill-0, #676767)"/>
</g>
</svg>
