<svg preserveAspectRatio="none" width="100%" height="100%" overflow="visible" style="display: block;" viewBox="0 0 20 20" fill="none" xmlns="http://www.w3.org/2000/svg">
<g id="screen-play 1" clip-path="url(#clip0_0_19)">
<path id="Vector" d="M16.25 0H3.75C1.6825 0 0 1.6825 0 3.75V11.25C0 13.3175 1.6825 15 3.75 15H16.25C18.3175 15 20 13.3175 20 11.25V3.75C20 1.6825 18.3175 0 16.25 0ZM19.1667 11.25C19.1667 12.8583 17.8583 14.1667 16.25 14.1667H3.75C2.14167 14.1667 0.833333 12.8583 0.833333 11.25V3.75C0.833333 2.14167 2.14167 0.833333 3.75 0.833333H16.25C17.8583 0.833333 19.1667 2.14167 19.1667 3.75V11.25ZM19.5842 17.9158H8.27417C8.0875 17.1992 7.44083 16.6658 6.66667 16.6658C5.8925 16.6658 5.24583 17.1992 5.05917 17.9158H0.416667C0.186667 17.9158 0 18.1025 0 18.3325C0 18.5625 0.186667 18.7492 0.416667 18.7492H5.05917C5.24583 19.4658 5.8925 19.9992 6.66667 19.9992C7.44083 19.9992 8.0875 19.4658 8.27417 18.7492H19.5833C19.8133 18.7492 20 18.5625 20 18.3325C20 18.1025 19.8142 17.9158 19.5842 17.9158ZM6.6675 19.1658C6.20833 19.1658 5.83417 18.7925 5.83417 18.3325C5.83417 17.8725 6.20833 17.4992 6.6675 17.4992C7.12667 17.4992 7.50083 17.8725 7.50083 18.3325C7.50083 18.7925 7.12667 19.1658 6.6675 19.1658Z" fill="var(--fill-0, #676767)"/>
<path id="Vector_2" d="M11.4167 4C10.7367 4 10.13 4.35417 9.75 4.90167C9.37 4.355 8.76333 4 8.08333 4C6.93417 4 6 5.00917 6 6.25C6 8.32583 9.15 10.6142 9.50917 10.8683L9.75 11.0383L9.99083 10.8683C10.35 10.6142 13.5 8.32583 13.5 6.25C13.5 5.00917 12.5658 4 11.4167 4ZM9.75 10.0108C8.75583 9.2575 6.83333 7.53417 6.83333 6.25C6.83333 5.46833 7.39417 4.83333 8.08333 4.83333C8.7725 4.83333 9.33333 5.46917 9.33333 6.25V6.5H10.1667C10.1667 6.5 10.7275 4.83333 11.4167 4.83333C12.1058 4.83333 12.6667 5.46917 12.6667 6.25C12.6667 7.53167 10.7433 9.25583 9.75 10.0108Z" fill="var(--fill-0, #676767)"/>
</g>
<defs>
<clipPath id="clip0_0_19">
<rect width="20" height="20" fill="white"/>
</clipPath>
</defs>
</svg>
