<svg width="20" height="20" viewBox="0 0 20 20" fill="none" xmlns="http://www.w3.org/2000/svg">
<g clip-path="url(#clip0_354_4695)">
<path d="M9.16667 5.9775V4.16667H11.25C11.48 4.16667 11.6667 3.98 11.6667 3.75C11.6667 3.52 11.48 3.33333 11.25 3.33333H9.16667V2.91667C9.16667 1.30833 7.85833 0 6.25 0C4.64167 0 3.33333 1.30833 3.33333 2.91667V5.9775C1.3575 6.90417 0 9.03167 0 11.25V16.25C0 18.3175 1.6825 20 3.75 20H8.75C10.8175 20 12.5 18.3175 12.5 16.25V11.25C12.5 9.03167 11.1425 6.90417 9.16667 5.9775ZM4.16667 2.91667C4.16667 1.76833 5.10167 0.833333 6.25 0.833333C7.39833 0.833333 8.33333 1.76833 8.33333 2.91667V5.83333H4.16667V2.91667ZM11.6667 16.25C11.6667 17.8583 10.3583 19.1667 8.75 19.1667H3.75C2.14167 19.1667 0.833333 17.8583 0.833333 16.25V11.25C0.833333 9.32417 2.09 7.41 3.83333 6.66667H8.6675C10.41 7.41 11.6675 9.32417 11.6675 11.25V16.25H11.6667ZM7.91667 11.6667H4.58333C3.435 11.6667 2.5 12.6017 2.5 13.75C2.5 14.8983 3.435 15.8333 4.58333 15.8333H7.91667C9.065 15.8333 10 14.8983 10 13.75C10 12.6017 9.065 11.6667 7.91667 11.6667ZM7.91667 15H4.58333C3.89417 15 3.33333 14.4392 3.33333 13.75C3.33333 13.0608 3.89417 12.5 4.58333 12.5H7.91667C8.60583 12.5 9.16667 13.0608 9.16667 13.75C9.16667 14.4392 8.60583 15 7.91667 15ZM15 4.16667C15 4.62667 14.6267 5 14.1667 5C13.7067 5 13.3333 4.62667 13.3333 4.16667C13.3333 3.70667 13.7067 3.33333 14.1667 3.33333C14.6267 3.33333 15 3.70667 15 4.16667ZM20 4.16667C20 4.62667 19.6267 5 19.1667 5C18.7067 5 18.3333 4.62667 18.3333 4.16667C18.3333 3.70667 18.7067 3.33333 19.1667 3.33333C19.6267 3.33333 20 3.70667 20 4.16667ZM18.3333 0.833333C18.3333 0.373333 18.7067 0 19.1667 0C19.6267 0 20 0.373333 20 0.833333C20 1.29333 19.6267 1.66667 19.1667 1.66667C18.7067 1.66667 18.3333 1.29333 18.3333 0.833333ZM20 7.5C20 7.96 19.6267 8.33333 19.1667 8.33333C18.7067 8.33333 18.3333 7.96 18.3333 7.5C18.3333 7.04 18.7067 6.66667 19.1667 6.66667C19.6267 6.66667 20 7.04 20 7.5ZM17.5 2.5C17.5 2.96 17.1267 3.33333 16.6667 3.33333C16.2067 3.33333 15.8333 2.96 15.8333 2.5C15.8333 2.04 16.2067 1.66667 16.6667 1.66667C17.1267 1.66667 17.5 2.04 17.5 2.5ZM17.5 5.83333C17.5 6.29333 17.1267 6.66667 16.6667 6.66667C16.2067 6.66667 15.8333 6.29333 15.8333 5.83333C15.8333 5.37333 16.2067 5 16.6667 5C17.1267 5 17.5 5.37333 17.5 5.83333Z" fill="currentColor"/>
</g>
<defs>
<clipPath id="clip0_354_4695">
<rect width="20" height="20" fill="white"/>
</clipPath>
</defs>
</svg>
