<svg width="20" height="20" viewBox="0 0 20 20" fill="none" xmlns="http://www.w3.org/2000/svg">
<g clip-path="url(#clip0_354_4521)">
<path d="M19.0967 0.994167C18.1792 0.371667 17.1151 0 16.2492 0C15.3909 0 14.3259 0.374167 13.4034 1.00167C12.6151 1.53667 12.2976 2.52667 12.6301 3.40917L13.7576 6.395L14.5051 18.3617C14.5626 19.2808 15.3284 20 16.2492 20C17.1701 20 17.9351 19.2808 17.9934 18.3617L18.7409 6.395L19.8692 3.40167C20.2017 2.51917 19.8851 1.52917 19.0967 0.995V0.994167ZM17.6809 10H14.8176L14.6092 6.66667H17.8892L17.6809 10ZM17.1617 18.31C17.1317 18.7908 16.7309 19.1667 16.2492 19.1667C15.7676 19.1667 15.3667 18.79 15.3367 18.31L14.8692 10.8333H17.6284L17.1617 18.31ZM19.0892 3.1075L18.0626 5.83333H14.4359L13.4101 3.115C13.2142 2.59417 13.4026 2.00833 13.8717 1.69083C14.6509 1.16167 15.5617 0.833333 16.2501 0.833333C16.9559 0.833333 17.8451 1.15083 18.6292 1.68417C19.0976 2.00167 19.2859 2.58667 19.0901 3.1075H19.0892ZM0.25508 3.2375L1.88091 3.9225L2.53008 5.54667C2.59341 5.705 2.74675 5.80833 2.91675 5.80833C3.08675 5.80833 3.24008 5.70417 3.30341 5.54667L3.95091 3.92667L5.57091 3.27917C5.72925 3.21583 5.83258 3.0625 5.83258 2.8925C5.83258 2.7225 5.72841 2.56917 5.57091 2.50583L3.95091 1.85833L3.30341 0.238333C3.17675 -0.0783333 2.65675 -0.0783333 2.52925 0.238333L1.88341 1.85417L0.269247 2.465C0.11008 2.525 0.00341353 2.67583 8.01956e-05 2.84583C-0.00325314 3.01583 0.0975802 3.17167 0.25508 3.2375ZM2.35008 2.5675C2.45925 2.52583 2.54591 2.44083 2.59008 2.3325L2.91758 1.51417L3.24508 2.3325C3.28758 2.43833 3.37175 2.5225 3.47758 2.565L4.29591 2.8925L3.47758 3.22C3.37175 3.2625 3.28758 3.34667 3.24508 3.4525L2.91758 4.27083L2.59008 3.4525C2.54841 3.34917 2.46758 3.26667 2.36508 3.22333L1.53925 2.87583L2.35008 2.56917V2.5675ZM8.83258 11.1675L8.30341 9.84583C8.17675 9.52917 7.65675 9.52917 7.52925 9.84583L7.00175 11.1642L5.68508 11.6625C5.52591 11.7233 5.41925 11.8742 5.41591 12.0442C5.41258 12.2142 5.51341 12.37 5.67091 12.4358L6.99841 12.995L7.52925 14.3208C7.59258 14.4792 7.74591 14.5825 7.91591 14.5825C8.08591 14.5825 8.23925 14.4783 8.30258 14.3208L8.83175 12.9992L10.1534 12.47C10.3117 12.4067 10.4151 12.2533 10.4151 12.0833C10.4151 11.9133 10.3109 11.76 10.1534 11.6967L8.83175 11.1675H8.83258ZM8.35758 12.2917C8.25175 12.3342 8.16758 12.4175 8.12508 12.5242L7.91675 13.045L7.70841 12.5242C7.66675 12.42 7.58591 12.3383 7.48341 12.295L6.95508 12.0725L7.46925 11.8783C7.57841 11.8367 7.66508 11.7517 7.70841 11.6433L7.91675 11.1225L8.12508 11.6433C8.16758 11.7492 8.25091 11.8333 8.35758 11.8758L8.87841 12.0842L8.35758 12.2925V12.2917ZM12.8301 16.3225C13.0209 16.4517 13.0692 16.7117 12.9401 16.9017C11.6176 18.8417 9.42758 20 7.08341 20C3.17758 20 8.01956e-05 16.8225 8.01956e-05 12.9167C8.01956e-05 9.01083 3.17758 5.83333 7.08341 5.83333C9.11508 5.83333 11.0509 6.7075 12.3959 8.23167C12.5484 8.405 12.5317 8.6675 12.3592 8.82C12.1859 8.9725 11.9234 8.95583 11.7709 8.78333C10.5842 7.43833 8.87508 6.66667 7.08341 6.66667C3.63675 6.66667 0.833414 9.47 0.833414 12.9167C0.833414 16.3633 3.63675 19.1667 7.08341 19.1667C9.15175 19.1667 11.0842 18.1442 12.2517 16.4317C12.3817 16.2408 12.6426 16.1942 12.8301 16.3225Z" fill="currentColor"/>
</g>
<defs>
<clipPath id="clip0_354_4521">
<rect width="20" height="20" fill="white"/>
</clipPath>
</defs>
</svg>
