<svg width="20" height="20" viewBox="0 0 20 20" fill="none" xmlns="http://www.w3.org/2000/svg">
<g clip-path="url(#clip0_354_4520)">
<path d="M18.3333 10.2925V8.74999C18.3333 7.74332 17.6167 6.90249 16.6667 6.70915V6.66665C16.6667 3.91999 15.0975 1.37165 14.0433 0.328321C13.76 0.0474872 13.355 -0.0716794 12.9625 0.00998724C12.5892 0.0874872 12.2942 0.331654 12.155 0.678321C11.6008 2.05749 10.9758 2.50082 9.58333 2.50082H7.91667C4.15833 2.50082 3.48333 5.61582 3.36167 6.70665C2.39833 6.88915 1.66667 7.73499 1.66667 8.75082V10.2933C0.685 10.7633 0 11.7583 0 12.9175V16.2508C0 18.3183 1.6825 20.0008 3.75 20.0008H16.25C18.3175 20.0008 20 18.3183 20 16.2508V12.9175C20 11.7583 19.315 10.7633 18.3333 10.2933V10.2925ZM7.91667 3.33332H9.58333C11.5833 3.33332 12.3458 2.43665 12.9283 0.989154C12.975 0.874154 13.0758 0.837487 13.1317 0.826654C13.2217 0.806654 13.3567 0.822487 13.4575 0.920821C14.3767 1.82999 15.8342 4.19415 15.8342 6.66749H4.19667C4.3175 5.68665 4.91833 3.33332 7.91667 3.33332ZM2.5 8.74999C2.5 8.06082 3.06083 7.49999 3.75 7.49999H16.25C16.9392 7.49999 17.5 8.06082 17.5 8.74999V10.0425C17.3625 10.0225 17.2258 9.99999 17.0833 9.99999H2.91667C2.77417 9.99999 2.6375 10.0225 2.5 10.0425V8.74999ZM19.1667 16.25C19.1667 17.8583 17.8583 19.1667 16.25 19.1667H3.75C2.14167 19.1667 0.833333 17.8583 0.833333 16.25V12.9167C0.833333 11.7675 1.7675 10.8333 2.91667 10.8333H17.0833C18.2325 10.8333 19.1667 11.7675 19.1667 12.9167V16.25Z" fill="currentColor"/>
</g>
<defs>
<clipPath id="clip0_354_4520">
<rect width="20" height="20" fill="white"/>
</clipPath>
</defs>
</svg>
