<svg width="20" height="20" viewBox="0 0 20 20" fill="none" xmlns="http://www.w3.org/2000/svg">
<g clip-path="url(#clip0_354_4694)">
<path d="M19.4115 4.81917L16.7832 1.26833C16.2157 0.474167 15.2932 0 14.3173 0H8.27151C8.27151 0 8.26484 0 8.26151 0H5.68318C4.70651 0 3.78484 0.474167 3.22234 1.26167L0.555676 4.82C-0.22599 5.925 -0.17599 7.43083 0.66151 8.46083L8.30818 19.1825C8.71984 19.7017 9.33651 19.9992 9.99901 19.9992H9.99984C10.6623 19.9992 11.279 19.7008 11.7032 19.1658L19.319 8.52333C20.1873 7.45417 20.2257 5.93167 19.4107 4.81917H19.4115ZM16.1098 1.75917L18.7407 5.31417C18.8598 5.47667 18.9532 5.65167 19.0223 5.83333H14.0473L12.3265 0.833333H14.3173C15.0257 0.833333 15.694 1.1775 16.1098 1.75917ZM6.83401 5.83333L8.55484 0.833333H11.4457L13.1665 5.83333H6.83401ZM13.1998 6.66667L9.99984 18.0442L6.79984 6.66667H13.1998ZM3.89401 1.75333C4.30568 1.1775 4.97401 0.833333 5.68234 0.833333H7.67318L5.95234 5.83333H0.95901C1.02401 5.65 1.11401 5.47417 1.22901 5.31083L3.89401 1.75333ZM8.97401 18.6817L1.32401 7.95667C1.01901 7.58167 0.855676 7.12667 0.834843 6.66667H5.93318L9.40568 19.0133C9.23818 18.9375 9.08818 18.8267 8.97318 18.6825L8.97401 18.6817ZM11.039 18.6642C10.9182 18.8158 10.7648 18.93 10.5948 19.0083L14.0665 6.665H19.1632C19.1498 7.1425 18.9815 7.61833 18.6582 8.01667L11.0398 18.6633L11.039 18.6642Z" fill="currentColor"/>
</g>
<defs>
<clipPath id="clip0_354_4694">
<rect width="20" height="20" fill="white"/>
</clipPath>
</defs>
</svg>
