<svg width="20" height="20" viewBox="0 0 20 20" fill="none" xmlns="http://www.w3.org/2000/svg">
<g clip-path="url(#clip0_354_4524)">
<path d="M12.1342 10.3659C11.6475 9.87838 10.8534 9.87838 10.3667 10.3659C9.87922 10.8534 9.87922 11.6459 10.3667 12.1334L12.0334 13.8C12.2692 14.0359 12.5834 14.1659 12.9176 14.1659C13.2517 14.1659 13.565 14.0359 13.8017 13.8C14.2892 13.3125 14.2892 12.5201 13.8017 12.0325L12.135 10.3659H12.1342ZM13.2117 13.2109C13.0542 13.3675 12.7801 13.3675 12.6226 13.2109L10.9559 11.5442C10.7934 11.3817 10.7934 11.1175 10.9559 10.955C11.0375 10.8734 11.1442 10.8334 11.2509 10.8334C11.3575 10.8334 11.4642 10.8734 11.5459 10.955L13.2125 12.6217C13.375 12.7842 13.3742 13.0484 13.2117 13.2109ZM19.8784 19.2884L17.3075 16.7176C18.6442 15.0934 18.6692 12.6967 17.2817 11.0709C13.9525 7.16922 11.365 4.30422 9.37422 2.31255L7.24838 0.187549C7.08588 0.0250488 6.82172 0.0250488 6.65922 0.187549C6.49672 0.350049 6.49672 0.614215 6.65922 0.776716L7.75088 1.86838L6.69755 2.92172L5.60588 1.83005C5.44338 1.66755 5.17922 1.66755 5.01672 1.83005C4.85422 1.99255 4.85422 2.25672 5.01672 2.41922L6.10838 3.51088L5.09505 4.52422L4.00338 3.43255C3.84088 3.27005 3.57672 3.27005 3.41422 3.43255C3.25172 3.59505 3.25172 3.85922 3.41422 4.02172L4.50588 5.11338L3.50338 6.11588L2.41172 5.02422C2.24922 4.86172 1.98505 4.86172 1.82255 5.02422C1.66005 5.18672 1.66005 5.45088 1.82255 5.61338L2.91422 6.70505L1.86838 7.75088L0.776716 6.65922C0.614215 6.49672 0.350049 6.49672 0.187549 6.65922C0.0250488 6.82172 0.0250488 7.08588 0.187549 7.24838L2.31255 9.37338C4.28338 11.3442 7.23005 14.0042 11.0725 17.2809C11.89 17.9792 12.9067 18.3242 13.9225 18.3242C14.9234 18.3242 15.9109 17.9692 16.7176 17.305L19.2901 19.8776C19.3717 19.9592 19.4784 19.9992 19.5851 19.9992C19.6917 19.9992 19.7984 19.9584 19.8801 19.8776C20.0425 19.715 20.0425 19.4509 19.8801 19.2884H19.8784ZM8.31838 2.47838C9.70922 4.10422 9.63588 6.56005 8.09755 8.09838C7.31588 8.88005 6.27505 9.31172 5.16838 9.31172C4.17005 9.31172 3.22588 8.96172 2.47755 8.32005L8.31838 2.47838ZM11.6117 16.6467C8.55422 14.0392 6.07922 11.8326 4.20588 10.0509C4.52005 10.1117 4.84172 10.1442 5.16838 10.1442C6.49755 10.1442 7.74755 9.62672 8.68672 8.68672C9.90422 7.46922 10.3559 5.77338 10.045 4.19838C11.8217 6.06422 13.9925 8.50005 16.6459 11.6109C17.845 13.0167 17.7592 15.1425 16.4509 16.4509C15.1434 17.7584 13.0167 17.8459 11.6109 16.6459L11.6117 16.6467Z" fill="currentColor"/>
</g>
<defs>
<clipPath id="clip0_354_4524">
<rect width="20" height="20" fill="white"/>
</clipPath>
</defs>
</svg>
