<svg width="20" height="20" viewBox="0 0 20 20" fill="none" xmlns="http://www.w3.org/2000/svg">
<g clip-path="url(#clip0_354_4525)">
<path d="M19.0942 1.1725C18.5275 0.806667 17.8217 0.753333 17.2075 1.03167L14.4567 2.27333C11.74 1.19083 8.38 0 5.83333 0C2.61667 0 0 2.61667 0 5.83333C0 8.39 1.65667 10.5633 3.95083 11.3483L6.85917 18.46C7.22833 19.3792 8.12 20 9.16667 20C9.4925 20 9.81833 19.935 10.1283 19.8067C11.4 19.2767 12.0042 17.81 11.4742 16.5367L9.19917 11.0975C10.8342 10.63 12.6117 9.93083 14.4542 9.19083L17.1492 10.6275C17.4275 10.765 17.7258 10.8325 18.0242 10.8325C19.0792 10.8517 20.0267 9.91833 20.0008 8.85333V2.83417C20.0008 2.15917 19.6625 1.53833 19.0958 1.1725H19.0942ZM0.833333 5.83333C0.833333 3.07583 3.07583 0.833333 5.83333 0.833333C8.24417 0.833333 11.5167 1.99667 14.1667 3.0525V8.4075C11.0258 9.66917 8.07 10.8317 5.83333 10.8317C3.07583 10.8317 0.833333 8.58917 0.833333 5.83167V5.83333ZM10.7042 16.8575C11.0575 17.7058 10.6542 18.6833 9.80667 19.0375C8.9575 19.3917 7.98 18.9875 7.62833 18.1425L4.95 11.5925C5.23833 11.6367 5.53167 11.6667 5.8325 11.6667C6.6175 11.6667 7.47667 11.5283 8.38333 11.3108L10.7042 16.8575ZM19.1658 8.85333C19.1658 9.25167 18.9642 9.615 18.6258 9.82417C18.2883 10.035 17.8742 10.0567 17.5275 9.885L14.9992 8.53667V2.9425L17.55 1.79083C17.9117 1.62833 18.3092 1.65667 18.6417 1.8725C18.9742 2.0875 19.165 2.43833 19.165 2.83417V8.85333H19.1658Z" fill="currentColor"/>
</g>
<defs>
<clipPath id="clip0_354_4525">
<rect width="20" height="20" fill="white"/>
</clipPath>
</defs>
</svg>
