<svg width="20" height="20" viewBox="0 0 20 20" fill="none" xmlns="http://www.w3.org/2000/svg">
<g clip-path="url(#clip0_346_4456)">
<path d="M7.90431 12.2726L9.05014 13.4609C9.20931 13.6267 9.20514 13.8909 9.03848 14.0501C8.87348 14.2101 8.60931 14.2051 8.44931 14.0392L7.30348 12.8509C7.14431 12.6851 7.14848 12.4209 7.31514 12.2617C7.48014 12.1017 7.74348 12.1076 7.90431 12.2726ZM11.6551 10.9834C11.7601 10.9834 11.866 10.9442 11.9468 10.8642C12.111 10.7034 12.1143 10.4392 11.9535 10.2751L9.81431 8.09256C9.65264 7.92923 9.38848 7.9259 9.22514 8.08673C9.06098 8.24756 9.05764 8.51173 9.21848 8.6759L11.3576 10.8584C11.4401 10.9417 11.5476 10.9834 11.6551 10.9834ZM13.4843 9.32506C13.6485 9.16423 13.6518 8.90006 13.491 8.7359L11.3518 6.5534C11.191 6.39006 10.926 6.3859 10.7626 6.54756C10.5985 6.7084 10.5951 6.97256 10.756 7.13673L12.8951 9.31923C13.0568 9.4834 13.3201 9.48673 13.4843 9.32506ZM15.0035 2.3034C15.1635 2.4684 15.4285 2.47173 15.5926 2.31173C15.7576 2.15173 15.761 1.88756 15.601 1.72256L14.0476 0.125896C13.8885 -0.0382702 13.6226 -0.0424369 13.4585 0.117563C13.2935 0.277563 13.2901 0.54173 13.4501 0.70673L15.0035 2.3034ZM14.7318 7.9059C14.8368 7.9059 14.9426 7.86673 15.0235 7.78673C15.1876 7.6259 15.191 7.36173 15.0301 7.19756L12.891 5.01506C12.7293 4.85256 12.4651 4.84756 12.3018 5.00923C12.1376 5.17006 12.1343 5.43423 12.2951 5.5984L14.4343 7.7809C14.5168 7.86423 14.6243 7.9059 14.7318 7.9059ZM9.94598 12.3934C10.051 12.3934 10.156 12.3542 10.2368 12.2751C10.4018 12.1142 10.4051 11.8509 10.2451 11.6859L8.67181 10.0701C8.51014 9.90506 8.24681 9.9034 8.08264 10.0617C7.91764 10.2226 7.91431 10.4859 8.07431 10.6509L9.64764 12.2667C9.73014 12.3509 9.83764 12.3934 9.94598 12.3934ZM17.5935 4.89423C17.7535 5.05923 18.0176 5.06506 18.1826 4.90506C18.3485 4.7459 18.3535 4.48173 18.1943 4.3159L17.0485 3.12673C16.8885 2.96173 16.6243 2.95673 16.4593 3.1159C16.2935 3.27506 16.2885 3.53923 16.4476 3.70506L17.5935 4.89423ZM14.2568 3.88673C14.0918 4.04756 14.0885 4.3109 14.2485 4.4759L15.8218 6.09173C15.9826 6.25673 16.2468 6.26006 16.411 6.10006C16.576 5.93923 16.5793 5.6759 16.4193 5.5109L14.846 3.89506C14.6851 3.73006 14.421 3.72756 14.2568 3.88673ZM5.88098 11.4276C6.04098 11.5926 6.30598 11.5959 6.47014 11.4359C6.63514 11.2759 6.63848 11.0117 6.47848 10.8467L4.92514 9.25006C4.76514 9.08506 4.50014 9.08173 4.33598 9.24173C4.17098 9.40173 4.16764 9.6659 4.32764 9.8309L5.88098 11.4276ZM12.8043 3.0734C12.9651 3.23756 13.2293 3.2409 13.3935 3.08006C13.5576 2.91923 13.561 2.65506 13.4001 2.4909L11.3743 0.42173C11.2143 0.258396 10.9493 0.25423 10.7851 0.415063C10.621 0.575896 10.6176 0.840063 10.7785 1.00423L12.8043 3.0734ZM6.65098 9.22756C6.81181 9.39173 7.07598 9.39506 7.24014 9.23423C7.40431 9.0734 7.40764 8.80923 7.24681 8.64506L5.22098 6.57506C5.06181 6.4109 4.79514 6.40756 4.63181 6.5684C4.46764 6.72923 4.46431 6.9934 4.62514 7.15756L6.65098 9.22756ZM19.8901 6.75173C19.7776 7.4259 19.5743 8.0984 19.3035 8.7609C17.7576 12.5284 13.7968 15.7867 9.63181 15.8351C8.53014 15.8351 7.53181 15.5742 6.68764 15.0792L2.13348 19.6342C1.89014 19.8776 1.56931 20.0001 1.25014 20.0001C0.930977 20.0001 0.610143 19.8784 0.36681 19.6342C0.130977 19.3984 0.000976562 19.0842 0.000976562 18.7501C0.000976562 18.4159 0.130977 18.1026 0.36681 17.8659L4.91848 13.3126C4.71848 12.9701 4.55514 12.6009 4.43348 12.2051C4.36598 11.9851 4.48848 11.7517 4.70931 11.6842C4.92848 11.6176 5.16181 11.7401 5.22931 11.9601C5.44098 12.6476 5.79264 13.2417 6.27514 13.7242C7.34098 14.7901 8.94014 15.2076 10.7818 14.9026C11.186 14.8351 11.591 14.7284 11.9926 14.5959L11.2035 13.7792C11.0435 13.6134 11.0476 13.3501 11.2135 13.1901C11.381 13.0309 11.6451 13.0342 11.8026 13.2001L12.841 14.2751C13.2701 14.0859 13.6926 13.8584 14.1051 13.6017L12.881 12.3376C12.7218 12.1717 12.7251 11.9084 12.891 11.7484C13.056 11.5884 13.3201 11.5926 13.4801 11.7576L14.8026 13.1226C14.8026 13.1226 14.8051 13.1267 14.806 13.1284C15.1643 12.8651 15.5101 12.5742 15.8443 12.2617L14.4201 10.8001C14.2601 10.6351 14.2635 10.3709 14.4285 10.2109C14.5918 10.0509 14.856 10.0542 15.0176 10.2184L16.4343 11.6717C16.7451 11.3384 17.0343 10.9942 17.2968 10.6367C17.2918 10.6317 17.2843 10.6301 17.2793 10.6251L15.9576 9.26006C15.7976 9.09506 15.8018 8.8309 15.9676 8.6709C16.1326 8.51173 16.3968 8.5159 16.5568 8.6809L17.771 9.93423C18.0226 9.52923 18.2468 9.1159 18.4335 8.69506L17.3793 7.60423C17.2193 7.4384 17.2235 7.17506 17.3893 7.01506C17.556 6.8559 17.8201 6.85923 17.9785 7.02506L18.761 7.83423C18.8943 7.42923 19.0018 7.02173 19.0701 6.61423C19.3768 4.77423 18.9576 3.17423 17.8918 2.10673C17.4085 1.62423 16.8151 1.27173 16.1276 1.0609C15.9076 0.992563 15.7843 0.760063 15.8526 0.540063C15.9193 0.320063 16.1485 0.19423 16.3735 0.26423C17.191 0.515896 17.9001 0.937563 18.481 1.51756C19.7435 2.78006 20.2443 4.6384 19.8918 6.7509L19.8901 6.75173ZM5.99598 14.5934C5.89014 14.5042 5.78431 14.4134 5.68598 14.3151C5.58681 14.2159 5.49931 14.1084 5.41014 14.0017L0.955976 18.4567C0.79431 18.6117 0.79431 18.8909 0.955976 19.0459C1.11848 19.2084 1.38264 19.2084 1.54514 19.0459L5.99598 14.5934ZM10.811 4.15673C10.9726 4.3209 11.236 4.32423 11.4001 4.16256C11.5643 4.00173 11.5676 3.73756 11.4068 3.57256L9.38681 1.51006C9.22598 1.34756 8.96098 1.3434 8.79764 1.50423C8.63348 1.66506 8.63014 1.92923 8.79098 2.09423L10.811 4.15673ZM9.27181 5.69506C9.43348 5.85923 9.69681 5.86256 9.86098 5.7009C10.0251 5.54006 10.0285 5.2759 9.86764 5.1109L7.84764 3.0484C7.68681 2.88506 7.42264 2.88173 7.25848 3.04256C7.09431 3.2034 7.09098 3.46756 7.25181 3.63256L9.27181 5.69506ZM7.73348 7.2334C7.89514 7.39756 8.15848 7.4009 8.32264 7.23923C8.48681 7.0784 8.49014 6.81423 8.32931 6.64923L6.30931 4.58673C6.14764 4.4234 5.88431 4.42006 5.72014 4.5809C5.55598 4.74173 5.55264 5.0059 5.71348 5.1709L7.73348 7.2334Z" fill="currentColor"/>
</g>
<defs>
<clipPath id="clip0_346_4456">
<rect width="20" height="20" fill="white"/>
</clipPath>
</defs>
</svg>
