<svg width="20" height="20" viewBox="0 0 20 20" fill="none" xmlns="http://www.w3.org/2000/svg">
<path d="M18.3017 9.68583C18.1542 8.91667 17.4783 8.33333 16.6667 8.33333C16.6667 7.63 16.2283 7.03083 15.6117 6.78667C14.9167 4.25583 12.6467 2.5 10 2.5C6.78333 2.5 4.16667 5.11667 4.16667 8.33333V8.4275C1.52083 9.36417 0 10.8392 0 12.5C0 15.3033 4.3925 17.5 10 17.5C15.6075 17.5 20 15.3033 20 12.5C20 11.4767 19.4092 10.5083 18.3017 9.68583ZM16.3025 9.255C16.8742 8.975 17.5008 9.41833 17.5008 9.99917C17.5008 10.58 16.8742 11.025 16.3025 10.7433L15.6892 10.4408C15.7733 10.3108 15.8342 10.165 15.8342 9.99917C15.8342 9.83333 15.7733 9.6875 15.6892 9.5575L16.3025 9.255ZM14.3117 10.4408L13.6983 10.7433C13.1275 11.0242 12.5 10.5808 12.5 9.99917C12.5 9.4175 13.1283 8.975 13.6983 9.255L14.3117 9.5575C14.2275 9.6875 14.1667 9.83333 14.1667 9.99917C14.1667 10.165 14.2275 10.3108 14.3117 10.4408ZM14.2567 11.3008L14.5575 10.6867C14.6875 10.7708 14.8342 10.8325 15.0008 10.8325C15.1675 10.8325 15.3133 10.7708 15.4442 10.6867L15.745 11.3008C15.8042 11.4217 15.8342 11.5442 15.8342 11.6658C15.8342 12.125 15.4608 12.4992 15.0008 12.4992C14.5408 12.4992 14.1675 12.125 14.1675 11.6658C14.1675 11.5442 14.1975 11.4217 14.2567 11.3008ZM15.8342 8.3325C15.8342 8.45417 15.8042 8.57667 15.745 8.6975L15.4442 9.31167C15.3142 9.2275 15.1675 9.16667 15.0008 9.16667C14.8342 9.16667 14.6883 9.2275 14.5575 9.31167L14.2567 8.6975C14.1975 8.57667 14.1675 8.45417 14.1675 8.3325C14.1675 7.87333 14.5408 7.49917 15.0008 7.49917C15.4608 7.49917 15.8342 7.87333 15.8342 8.3325ZM5.00083 8.3325C5.00083 5.575 7.24333 3.3325 10.0008 3.3325C12.1583 3.3325 14.0175 4.69667 14.7092 6.695C13.93 6.83417 13.3342 7.51333 13.3342 8.3325C12.415 8.3325 11.6675 9.08 11.6675 9.99917C11.6675 10.0917 11.68 10.1817 11.695 10.27C11.1642 10.36 10.6017 10.4158 10.0008 10.4158C6.57833 10.4158 5.27917 8.98667 5.00083 8.61833V8.3325ZM5.00083 9.7825C5.81583 10.4392 7.35333 11.2492 10.0008 11.2492C10.73 11.2492 11.4183 11.1817 12.0575 11.0575C12.3633 11.4258 12.8192 11.6658 13.3342 11.6658C13.3342 11.735 13.3467 11.8017 13.355 11.8692C12.4208 12.28 11.3017 12.4992 10.0008 12.4992C6.58417 12.4992 5.28083 11.0725 5.00083 10.7025V9.7825ZM10.0008 16.6658C5.0325 16.6658 0.834167 14.7575 0.834167 12.4992C0.834167 11.285 2.0775 10.1175 4.1675 9.31667V10.9483C4.22333 11.0417 5.64833 13.3325 10.0008 13.3325C11.4033 13.3325 12.6233 13.0925 13.6575 12.6433C13.9608 13.0592 14.4483 13.3325 15.0008 13.3325C15.92 13.3325 16.6675 12.585 16.6675 11.6658C17.3492 11.6658 17.9358 11.2533 18.1933 10.665C18.7092 11.13 19.1675 11.7533 19.1675 12.4992C19.1675 14.7575 14.97 16.6658 10.0008 16.6658Z" fill="currentColor"/>
</svg>
