<svg width="20" height="20" viewBox="0 0 20 20" fill="none" xmlns="http://www.w3.org/2000/svg">
<g clip-path="url(#clip0_354_4522)">
<path d="M14.1666 11.9591V9.58328C14.1666 8.90411 13.8358 8.30578 13.3316 7.92578C13.3316 7.92244 13.3333 7.91994 13.3333 7.91661V1.66828C13.3333 1.08661 13.0383 0.555777 12.5424 0.249944C12.0466 -0.0558892 11.4408 -0.0825559 10.9208 0.177444L8.27827 1.49911C7.28411 1.99661 6.66577 2.99578 6.66577 4.10744V7.91661C6.66577 7.91661 6.66744 7.92244 6.66744 7.92578C6.16327 8.30661 5.83244 8.90411 5.83244 9.58328V11.9591C4.85077 12.4291 4.16577 13.4241 4.16577 14.5833V17.0833C4.16577 18.6916 5.4741 19.9999 7.08244 19.9999H12.9158C14.5241 19.9999 15.8324 18.6916 15.8324 17.0833V14.5833C15.8324 13.4241 15.1483 12.4291 14.1666 11.9591ZM7.49994 4.10744C7.49994 3.31328 7.94077 2.59911 8.65161 2.24494L11.2941 0.923278C11.5591 0.792444 11.8533 0.804111 12.1049 0.959944C12.3524 1.11244 12.5008 1.37744 12.5008 1.66911V7.54328C12.3658 7.51578 12.2266 7.50078 12.0841 7.50078H7.91744C7.77494 7.50078 7.63577 7.51578 7.50077 7.54328V4.10828L7.49994 4.10744ZM6.6666 9.58328C6.6666 8.89411 7.22744 8.33328 7.9166 8.33328H12.0833C12.7724 8.33328 13.3333 8.89411 13.3333 9.58328V11.7091C13.1958 11.6891 13.0591 11.6666 12.9166 11.6666H7.08327C6.94077 11.6666 6.8041 11.6891 6.6666 11.7091V9.58328ZM14.9999 17.0833C14.9999 18.2324 14.0649 19.1666 12.9166 19.1666H7.08327C5.93494 19.1666 4.99994 18.2324 4.99994 17.0833V14.5833C4.99994 13.4341 5.93494 12.4999 7.08327 12.4999H12.9166C14.0649 12.4999 14.9999 13.4341 14.9999 14.5833V17.0833Z" fill="currentColor"/>
</g>
<defs>
<clipPath id="clip0_354_4522">
<rect width="20" height="20" fill="white"/>
</clipPath>
</defs>
</svg>
