<svg width="20" height="20" viewBox="0 0 20 20" fill="none" xmlns="http://www.w3.org/2000/svg">
<g clip-path="url(#clip0_354_4518)">
<path d="M3.55935 9.42833L4.27018 10.1358C4.20935 10.5008 4.16685 10.8717 4.16685 11.25V20H3.33351V11.25C3.33351 10.6258 3.41351 10.0158 3.55935 9.42833ZM16.6668 5.02667V2.91667C16.6668 1.30833 15.3585 0 13.7502 0H9.58351C8.43268 0 7.44518 0.675833 6.97018 1.64583L7.60851 2.28417C7.87768 1.44583 8.65601 0.833333 9.58351 0.833333H13.7502C14.8985 0.833333 15.8335 1.76833 15.8335 2.91667V12.0833C15.8335 13.6917 14.5252 15 12.9168 15H10.4168C8.80851 15 7.50018 13.6917 7.50018 12.0833V10.4175L6.66685 9.58667V12.0833C6.66685 14.1508 8.34935 15.8333 10.4168 15.8333H12.9168C14.9843 15.8333 16.6668 14.1508 16.6668 12.0833V6.04917C18.2435 7.30833 19.1668 9.19917 19.1668 11.25V20H20.0002V11.25C20.0002 8.72833 18.7535 6.42417 16.6668 5.02667ZM6.04185 6.61L4.56935 8.0825L0.489346 4.025C-0.161488 3.37417 -0.161488 2.31667 0.489346 1.66667L1.66768 0.488333C2.31768 -0.161667 3.37435 -0.161667 4.02518 0.488333L8.10601 4.54667L6.63268 6.02L9.23851 8.62L12.3327 10.3192L10.3418 12.31L8.62768 9.18833L6.04268 6.60917L6.04185 6.61ZM6.92518 4.54833L3.43601 1.07833C3.11018 0.7525 2.58185 0.7525 2.25601 1.07833L1.07768 2.25667C0.752679 2.58167 0.752679 3.11 1.07768 3.43583L4.56768 6.90667L6.92435 4.54917L6.92518 4.54833Z" fill="currentColor"/>
</g>
<defs>
<clipPath id="clip0_354_4518">
<rect width="20" height="20" fill="white"/>
</clipPath>
</defs>
</svg>
