<svg width="20" height="20" viewBox="0 0 20 20" fill="none" xmlns="http://www.w3.org/2000/svg">
<path d="M7.65167 13.8442L9.09583 15.9933L8.40417 16.4583L6.97917 14.3375C6.68333 14.5175 6.35583 14.6733 5.99167 14.7875L6.54167 17.2375L5.72833 17.42L5.17667 14.9625C4.98583 14.9858 4.79 15.0008 4.58333 15.0008C4.3675 15.0008 4.1625 14.9833 3.96333 14.9583L3.43 17.4158L2.615 17.2392L3.14833 14.7817C2.79417 14.6683 2.47583 14.5142 2.18667 14.3383L0.761667 16.4592L0.07 15.9942L1.51417 13.845C0.683333 13.12 0.2175 12.2508 0.0366667 11.8567L0.794167 11.51C1.07917 12.1333 2.19583 14.1675 4.58167 14.1675C6.9675 14.1675 8.08417 12.1333 8.36917 11.51L9.12667 11.8567C8.94667 12.2508 8.48083 13.12 7.64917 13.845L7.65167 13.8442ZM20 5V5.83333H19.1667V7.5H18.3333V5.83333H17.5V7.5H16.6667V5.83333H15.8333V7.5H15V5.83333H14.1667V7.5H13.3333V5.83333H8.33333V8.33333H1.66667C0.7475 8.33333 0 7.58583 0 6.66667V4.16667C0 3.2475 0.7475 2.5 1.66667 2.5H8.33333V5H13.3333V3.33333H14.1667V5H15V3.33333H15.8333V5H16.6667V3.33333H17.5V5H18.3333V3.33333H19.1667V5H20ZM7.5 3.33333H1.66667C1.2075 3.33333 0.833333 3.7075 0.833333 4.16667V6.66667C0.833333 7.12583 1.2075 7.5 1.66667 7.5H7.5V3.33333ZM19.9625 11.8558L19.205 11.5092C18.92 12.1325 17.8033 14.1667 15.4175 14.1667C13.0317 14.1667 11.915 12.1325 11.63 11.5092L10.8725 11.8558C11.0525 12.25 11.5183 13.1192 12.35 13.8442L10.9058 15.9933L11.5975 16.4583L13.0225 14.3375C13.3117 14.5133 13.63 14.6675 13.9842 14.7808L13.4508 17.2383L14.2658 17.415L14.7992 14.9575C14.9983 14.9825 15.2025 15 15.4192 15C15.6258 15 15.8217 14.985 16.0125 14.9617L16.5642 17.4192L17.3775 17.2367L16.8275 14.7867C17.1917 14.6725 17.5192 14.5167 17.815 14.3367L19.24 16.4575L19.9317 15.9925L18.4875 13.8433C19.3183 13.1183 19.7842 12.2492 19.965 11.855L19.9625 11.8558Z" fill="currentColor"/>
</svg>
