<svg width="20" height="20" viewBox="83 28 20 20" fill="none" xmlns="http://www.w3.org/2000/svg">
<path d="M86 38.8333C86 39.7525 86.7475 40.5 87.6667 40.5C88.5858 40.5 89.3333 39.7525 89.3333 38.8333C89.3333 37.9142 88.5858 37.1667 87.6667 37.1667C86.7475 37.1667 86 37.9142 86 38.8333ZM88.5 38.8333C88.5 39.2933 88.1258 39.6667 87.6667 39.6667C87.2075 39.6667 86.8333 39.2933 86.8333 38.8333C86.8333 38.3733 87.2075 38 87.6667 38C88.1258 38 88.5 38.3733 88.5 38.8333ZM101.417 28H85.5833C84.435 28 83.5 28.9342 83.5 30.0833V43H91.0208C91.0125 42.8617 91 42.7242 91 42.5833C91 42.4425 91.0133 42.305 91.0208 42.1667H84.3333V33H102.667V37.1883C102.967 37.4433 103.246 37.7225 103.5 38.0242V30.0833C103.5 28.9342 102.565 28 101.417 28ZM84.3333 32.1667V30.0833C84.3333 29.3942 84.8942 28.8333 85.5833 28.8333H101.417C102.106 28.8333 102.667 29.3942 102.667 30.0833V32.1667H84.3333ZM98.0833 37.1667C95.0967 37.1667 92.6667 39.5967 92.6667 42.5833C92.6667 45.57 95.0967 48 98.0833 48C101.07 48 103.5 45.57 103.5 42.5833C103.5 39.5967 101.07 37.1667 98.0833 37.1667ZM98.0833 47.1667C95.5558 47.1667 93.5 45.11 93.5 42.5833C93.5 40.0567 95.5558 38 98.0833 38C100.611 38 102.667 40.0567 102.667 42.5833C102.667 45.11 100.611 47.1667 98.0833 47.1667ZM100.331 40.925L98.6725 42.5833L100.331 44.2417L99.7417 44.8308L98.0833 43.1725L96.425 44.8308L95.8358 44.2417L97.4942 42.5833L95.8358 40.925L96.425 40.3358L98.0833 41.9942L99.7417 40.3358L100.331 40.925Z" fill="currentColor"/>
</svg>