<svg width="20" height="15" viewBox="0 0 20 15" fill="none" xmlns="http://www.w3.org/2000/svg">
<path d="M0.500006 4.30002C1.25588 4.30002 1.98079 4.60029 2.51527 5.13477C3.04975 5.66925 3.35002 6.39416 3.35002 7.15003C3.35002 7.9059 3.04975 8.63081 2.51527 9.16529C1.98079 9.69977 1.25588 10 0.500006 10V11.9C0.500006 12.404 0.700185 12.8872 1.05651 13.2436C1.41283 13.5999 1.8961 13.8001 2.40001 13.8001H17.6001C18.104 13.8001 18.5873 13.5999 18.9436 13.2436C19.2999 12.8872 19.5001 12.404 19.5001 11.9V10C18.7442 10 18.0193 9.69977 17.4848 9.16529C16.9503 8.63081 16.6501 7.9059 16.6501 7.15003C16.6501 6.39416 16.9503 5.66925 17.4848 5.13477C18.0193 4.60029 18.7442 4.30002 19.5001 4.30002V2.40001C19.5001 1.8961 19.2999 1.41283 18.9436 1.05651C18.5873 0.700185 18.104 0.500006 17.6001 0.500006H2.40001C1.8961 0.500006 1.41283 0.700185 1.05651 1.05651C0.700185 1.41283 0.500006 1.8961 0.500006 2.40001V4.30002Z" stroke="currentColor" stroke-linecap="round" stroke-linejoin="round"/>
</svg>
