<svg width="20" height="20" viewBox="83 28 20 20" fill="none" xmlns="http://www.w3.org/2000/svg">
<path d="M92.6667 44.2417C92.6667 44.6583 92.5083 45.075 92.1833 45.3917L90.0417 47.4917C89.9583 47.5667 89.8583 47.6083 89.75 47.6083C89.6417 47.6083 89.5333 47.5667 89.45 47.4833C89.2917 47.3167 89.2917 47.0583 89.45 46.8917L91.5917 44.8C91.6417 44.75 91.675 44.7 91.7083 44.65H87.25C85.6417 44.65 84.3333 43.3417 84.3333 41.7333V39.2333C84.3333 39 84.5167 38.8167 84.75 38.8167C84.9833 38.8167 85.1667 39 85.1667 39.2333V41.7333C85.1667 42.8833 86.1 43.8167 87.25 43.8167H91.7167C91.6833 43.7583 91.6417 43.7083 91.5917 43.6583L89.45 41.5667C89.2833 41.4083 89.2833 41.1417 89.45 40.975C89.6167 40.8083 89.875 40.8083 90.0417 40.975L92.1833 43.0667C92.5 43.3833 92.6667 43.8083 92.6667 44.225V44.2417ZM94.8167 32.9167L96.9583 35.0083C97.0417 35.0833 97.1417 35.125 97.25 35.125C97.3583 35.125 97.4667 35.0833 97.55 35C97.7083 34.8333 97.7083 34.575 97.55 34.4083L95.4083 32.3167C95.3583 32.2667 95.3167 32.2167 95.2833 32.1583H99.75C100.9 32.1583 101.833 33.0917 101.833 34.2417V36.7417C101.833 36.975 102.017 37.1583 102.25 37.1583C102.483 37.1583 102.667 36.975 102.667 36.7417V34.2417C102.667 32.6333 101.358 31.325 99.75 31.325H95.2833C95.3167 31.2667 95.3583 31.2167 95.4 31.175L97.5417 29.0833C97.7083 28.925 97.7083 28.6583 97.5417 28.4917C97.3833 28.325 97.1167 28.325 96.95 28.4917L94.8083 30.5917C94.4917 30.9083 94.3333 31.325 94.325 31.7417C94.325 32.1583 94.4917 32.575 94.8083 32.9L94.8167 32.9167ZM103.5 41.75V45.0833C103.5 46.6917 102.192 48 100.583 48H97.25C95.6417 48 94.3333 46.6917 94.3333 45.0833V41.75C94.3333 40.1417 95.6417 38.8333 97.25 38.8333H100.583C102.192 38.8333 103.5 40.1417 103.5 41.75ZM102.667 41.75C102.667 40.6 101.733 39.6667 100.583 39.6667H97.25C96.1 39.6667 95.1667 40.6 95.1667 41.75V45.0833C95.1667 46.2333 96.1 47.1667 97.25 47.1667H100.583C101.733 47.1667 102.667 46.2333 102.667 45.0833V41.75ZM92.6667 30.9167V34.25C92.6667 35.8583 91.3583 37.1667 89.75 37.1667H86.4167C84.8083 37.1667 83.5 35.8583 83.5 34.25V30.9167C83.5 29.3083 84.8083 28 86.4167 28H89.75C91.3583 28 92.6667 29.3083 92.6667 30.9167ZM91.8333 30.9167C91.8333 29.7667 90.9 28.8333 89.75 28.8333H86.4167C85.2667 28.8333 84.3333 29.7667 84.3333 30.9167V34.25C84.3333 35.4 85.2667 36.3333 86.4167 36.3333H89.75C90.9 36.3333 91.8333 35.4 91.8333 34.25V30.9167Z" fill="currentColor"/>
</svg>