<svg width="18" height="17" viewBox="0 0 18 17" fill="none" xmlns="http://www.w3.org/2000/svg">
<path d="M17.85 7.76089C17.85 5.9271 16.3484 4.43479 14.5032 4.43479H12.6438V2.58696C12.6438 1.56844 11.81 0.739132 10.7844 0.739132H8.54571C8.72272 0.972698 8.88412 1.21809 9.02245 1.47826H10.7844C11.3995 1.47826 11.9 1.9757 11.9 2.58696V13.3044H0.743752V8.49263C0.476001 8.29232 0.227588 8.06911 0 7.82519V14.0435H1.6184C1.53213 14.2793 1.4875 14.5284 1.4875 14.7826C1.4875 16.0052 2.48859 17 3.71876 17C4.94892 17 5.95001 16.0052 5.95001 14.7826C5.95001 14.5284 5.90539 14.2793 5.81911 14.0435H12.0309C11.9447 14.2793 11.9 14.5284 11.9 14.7826C11.9 16.0052 12.9011 17 14.1313 17C15.3614 17 16.3625 16.0052 16.3625 14.7826C16.3625 14.5284 16.3179 14.2793 16.2316 14.0435H17.85V7.76089ZM5.20626 14.7826C5.20626 15.5979 4.53912 16.2609 3.71876 16.2609C2.8984 16.2609 2.23126 15.5979 2.23126 14.7826C2.23126 14.5225 2.30191 14.2704 2.43727 14.0435H5.00024C5.13561 14.2704 5.20626 14.5225 5.20626 14.7826ZM14.5032 5.17393C15.9386 5.17393 17.1063 6.33436 17.1063 7.76089V8.86959H12.6438V5.17393H14.5032ZM15.6188 14.7826C15.6188 15.5979 14.9516 16.2609 14.1313 16.2609C13.3109 16.2609 12.6438 15.5979 12.6438 14.7826C12.6438 14.5225 12.7144 14.2704 12.8498 14.0435H15.4128C15.5481 14.2704 15.6188 14.5225 15.6188 14.7826ZM12.6438 13.3044V9.60872H17.1063V13.3044H12.6438ZM4.09063 8.13045C6.34569 8.13045 8.18127 6.30702 8.18127 4.06523C8.18127 1.82344 6.34569 0 4.09063 0C1.83558 0 0 1.82344 0 4.06523C0 6.30702 1.83558 8.13045 4.09063 8.13045ZM4.09063 0.739132C5.93588 0.739132 7.43752 2.23144 7.43752 4.06523C7.43752 5.89901 5.93588 7.39132 4.09063 7.39132C2.24539 7.39132 0.743752 5.89901 0.743752 4.06523C0.743752 2.23144 2.24539 0.739132 4.09063 0.739132Z" fill="currentColor"/>
<path d="M4.49942 5.61281C4.49942 5.79895 4.34835 5.95001 4.16221 5.95001C3.97608 5.95001 3.82501 5.79895 3.82501 5.61281C3.82501 5.42667 3.97608 5.2756 4.16221 5.2756C4.34835 5.2756 4.49942 5.42667 4.49942 5.61281ZM4.16217 4.88751C4.31577 4.88751 4.44044 4.76285 4.44044 4.60924V2.33245C4.44044 2.17884 4.31577 2.05417 4.16217 2.05417C4.00856 2.05417 3.88389 2.17884 3.88389 2.33245V4.60924C3.88389 4.76285 4.00856 4.88751 4.16217 4.88751Z" fill="currentColor"/>
</svg>
