<svg width="20" height="20" viewBox="83.5 28.0 20 20" fill="none" xmlns="http://www.w3.org/2000/svg">
<path d="M93.5 28C87.9858 28 83.5 32.4858 83.5 38C83.5 43.5142 87.9858 48 93.5 48C99.0142 48 103.5 43.5142 103.5 38C103.5 32.4858 99.0142 28 93.5 28ZM93.5 47.1667C88.4458 47.1667 84.3333 43.0542 84.3333 38C84.3333 32.9458 88.4458 28.8333 93.5 28.8333C98.5542 28.8333 102.667 32.9458 102.667 38C102.667 43.0542 98.5542 47.1667 93.5 47.1667ZM96.3342 42.8317C96.2517 42.9417 96.1267 42.9992 95.9992 42.9992C95.9125 42.9992 95.8267 42.9733 95.7517 42.9175C95.7417 42.91 94.7192 42.1667 93.5 42.1667C92.2808 42.1667 91.2583 42.9108 91.2483 42.9175C91.0625 43.0542 90.8033 43.015 90.6658 42.8308C90.5292 42.6458 90.5675 42.3858 90.7517 42.2483C90.8025 42.2108 91.9992 41.3325 93.5008 41.3325C95.0025 41.3325 96.1992 42.2108 96.25 42.2483C96.4342 42.3858 96.4725 42.6467 96.3358 42.8308L96.3342 42.8317ZM91.5583 37.9758L88.225 39.1775C88.1775 39.1942 88.1308 39.2017 88.0833 39.2017C87.9125 39.2017 87.7533 39.0958 87.6908 38.9267C87.6125 38.71 87.725 38.4708 87.9417 38.3925L91.275 37.1908C91.4933 37.1167 91.73 37.225 91.8092 37.4417C91.8875 37.6583 91.775 37.8975 91.5583 37.9758ZM99.3092 38.9275C99.2475 39.0967 99.0875 39.2025 98.9167 39.2025C98.8692 39.2025 98.8225 39.1942 98.775 39.1783L95.4417 37.9767C95.225 37.8983 95.1125 37.6592 95.1908 37.4425C95.27 37.2258 95.5083 37.1175 95.725 37.1917L99.0583 38.3933C99.275 38.4717 99.3875 38.7108 99.3092 38.9275Z" fill="currentColor"/>
</svg>