<svg width="21" height="20" viewBox="0 0 21 20" fill="none" xmlns="http://www.w3.org/2000/svg">
<path d="M8.33366 10.0483C8.10366 10.0483 7.91699 9.86167 7.91699 9.63167V4.63167C7.91699 4.40167 8.10282 4.215 8.33366 4.215C8.56449 4.215 8.75032 4.40167 8.75032 4.63167V9.63167C8.75032 9.86167 8.56449 10.0483 8.33366 10.0483ZM8.33366 10.8308C7.87366 10.8308 7.50032 11.2042 7.50032 11.6642C7.50032 12.1242 7.87366 12.4975 8.33366 12.4975C8.79366 12.4975 9.16699 12.1242 9.16699 11.6642C9.16699 11.2042 8.79366 10.8308 8.33366 10.8308ZM13.9637 8.33417C14.162 8.21833 14.2295 7.96333 14.1137 7.76417L10.1753 1.01167C9.80616 0.378333 9.14699 0 8.41366 0C7.68032 0 7.02116 0.378333 6.65199 1.01167L0.281156 11.9325C-0.0913435 12.5717 -0.0938435 13.3358 0.27449 13.9767C0.642823 14.6183 1.30366 15.0008 2.04282 15.0008H7.50116C7.73116 15.0008 7.91782 14.8142 7.91782 14.5842C7.91782 14.3542 7.73116 14.1675 7.50116 14.1675H2.04282C1.60616 14.1675 1.21532 13.9417 0.99699 13.5617C0.778656 13.1817 0.780323 12.73 1.00032 12.3525L7.37116 1.43167C7.59032 1.05667 7.97949 0.833333 8.41366 0.833333C8.84782 0.833333 9.23699 1.05667 9.45616 1.43167L13.3945 8.18417C13.5103 8.38333 13.7645 8.44917 13.9637 8.33417ZM19.8795 19.8783C19.7978 19.96 19.6912 20 19.5845 20C19.4778 20 19.3712 19.9592 19.2895 19.8783L16.7895 17.3783C16.0712 17.9658 15.1662 18.3333 14.1678 18.3333C11.8703 18.3333 10.0012 16.4642 10.0012 14.1667C10.0012 11.8692 11.8703 10 14.1678 10C16.4653 10 18.3345 11.8692 18.3345 14.1667C18.3345 15.165 17.967 16.07 17.3795 16.7883L19.8795 19.2883C20.042 19.4508 20.042 19.7158 19.8795 19.8783ZM17.5012 14.1667C17.5012 12.3283 16.0062 10.8333 14.1678 10.8333C12.3295 10.8333 10.8345 12.3283 10.8345 14.1667C10.8345 16.005 12.3295 17.5 14.1678 17.5C16.0062 17.5 17.5012 16.005 17.5012 14.1667Z" fill="currentColor"/>
</svg>
