<svg width="20" height="21" viewBox="0 0 20 21" fill="none" xmlns="http://www.w3.org/2000/svg">
<path d="M13.3213 8.32521C13.3213 6.48688 11.8263 4.99187 9.98796 4.99187C8.14963 4.99187 6.65463 6.48688 6.65463 8.32521C6.65463 10.1635 8.14963 11.6585 9.98796 11.6585C11.8263 11.6585 13.3213 10.1635 13.3213 8.32521ZM9.98796 10.8252C8.60963 10.8252 7.48796 9.70354 7.48796 8.32521C7.48796 6.94688 8.60963 5.82521 9.98796 5.82521C11.3663 5.82521 12.488 6.94688 12.488 8.32521C12.488 9.70354 11.3663 10.8252 9.98796 10.8252ZM19.5196 15.0835L16.6505 12.306C16.6488 12.1194 16.6271 11.9335 16.5855 11.7502C16.4855 11.311 16.6871 10.8435 17.0863 10.586C17.4596 10.3444 17.7638 10.016 17.9888 9.60938C18.2013 9.22604 18.3121 8.78438 18.3105 8.33604C18.3121 7.88438 18.2013 7.44271 17.9888 7.05938C17.763 6.65271 17.4596 6.32438 17.0855 6.08271C16.6863 5.82521 16.4855 5.35771 16.5846 4.91937C16.6863 4.47604 16.6713 4.01854 16.5396 3.56104C16.293 2.70271 15.6071 2.01771 14.7505 1.77271C14.2946 1.64188 13.838 1.62604 13.3938 1.72688C12.958 1.82771 12.488 1.62604 12.2305 1.22688C11.9888 0.853542 11.6605 0.550208 11.2546 0.324375C10.4738 -0.108125 9.50463 -0.108125 8.72379 0.324375C8.31713 0.550208 7.98879 0.854375 7.74796 1.22771C7.49046 1.62688 7.02129 1.82854 6.58463 1.72771C6.14046 1.62688 5.68379 1.64271 5.22796 1.77354C4.37046 2.01938 3.68463 2.70438 3.43879 3.56271C3.30796 4.01938 3.29213 4.47604 3.39296 4.92021C3.49296 5.35854 3.29213 5.82604 2.89296 6.08354C2.51879 6.32521 2.21463 6.65438 1.99046 7.05938C1.77796 7.44271 1.66713 7.88438 1.66879 8.33354C1.66713 8.78604 1.77796 9.22771 1.99046 9.61021C2.21546 10.016 2.51879 10.3452 2.89379 10.5869C3.29296 10.8444 3.49379 11.3119 3.39379 11.7502C3.35129 11.9394 3.32963 12.131 3.32879 12.3244L0.478793 15.0835C0.0371259 15.5094 -0.112874 16.1344 0.0871259 16.7144C0.287126 17.2944 0.790459 17.6944 1.40129 17.7577L2.34629 17.8552L2.45796 18.6602C2.53963 19.2469 2.93879 19.7302 3.49879 19.921C3.66546 19.9777 3.83629 20.006 4.00629 20.006C4.40546 20.006 4.79546 19.851 5.09213 19.5619L8.53212 16.2277C8.59462 16.2685 8.65879 16.3085 8.72546 16.3452C9.11546 16.561 9.55296 16.6694 9.99046 16.6694C10.428 16.6694 10.8655 16.561 11.2563 16.3444C11.3271 16.3052 11.3946 16.2635 11.4605 16.2194L14.9071 19.5594C15.2046 19.8502 15.5946 20.0052 15.9946 20.0052C16.1638 20.0052 16.3355 19.9769 16.5013 19.9202C17.0613 19.7294 17.4605 19.246 17.5421 18.6594L17.6538 17.8544L18.5988 17.7569C19.2096 17.6935 19.713 17.2935 19.913 16.7135C20.113 16.1335 19.963 15.5085 19.5213 15.0827L19.5196 15.0835ZM4.50796 18.9644C4.30879 19.1602 4.03129 19.2227 3.76546 19.1319C3.50046 19.0419 3.31879 18.8219 3.28046 18.5444L3.12379 17.416C3.09713 17.226 2.94463 17.0785 2.75379 17.0585L1.48379 16.9277C1.19546 16.8977 0.966292 16.7169 0.872126 16.4419C0.777959 16.1677 0.845459 15.8844 1.05546 15.6819L3.50546 13.3102C3.79463 14.0719 4.43796 14.6702 5.22629 14.8952C5.68296 15.026 6.14046 15.0419 6.58296 14.941C7.02046 14.8427 7.48879 15.0427 7.74629 15.441C7.79713 15.5194 7.85129 15.5944 7.90963 15.6669L4.50796 18.9644ZM9.12713 15.6152C8.84129 15.4577 8.61296 15.2469 8.44713 14.9894C8.07879 14.4177 7.45379 14.0827 6.80796 14.0827C6.67129 14.0827 6.53463 14.0977 6.39879 14.1285C6.09379 14.1977 5.77629 14.1869 5.45629 14.0944C4.88129 13.9302 4.40379 13.4519 4.23879 12.8777C4.14713 12.5569 4.13546 12.2394 4.20463 11.9344C4.38129 11.1552 4.03546 10.3327 3.34379 9.88604C3.08546 9.71938 2.87546 9.49021 2.71796 9.20521C2.57463 8.94688 2.49963 8.64604 2.50046 8.33271C2.49963 8.02188 2.57379 7.72188 2.71796 7.46271C2.87546 7.17771 3.08629 6.94938 3.34379 6.78271C4.03629 6.33604 4.38213 5.51354 4.20463 4.73438C4.13546 4.42937 4.14713 4.11188 4.23879 3.79104C4.40379 3.21604 4.88129 2.73854 5.45629 2.57354C5.77713 2.48271 6.09463 2.47021 6.39879 2.53938C7.17713 2.71688 8.00129 2.37104 8.44713 1.67854C8.61296 1.42104 8.84129 1.21021 9.12629 1.05271C9.64962 0.761875 10.3255 0.762708 10.8488 1.05271C11.1338 1.21104 11.363 1.42188 11.5288 1.67854C11.9746 2.37104 12.7971 2.71438 13.5771 2.53938C13.8821 2.47021 14.1996 2.48187 14.5196 2.57354C15.0946 2.73771 15.573 3.21604 15.738 3.79021C15.8296 4.11104 15.8413 4.42854 15.7713 4.73354C15.5946 5.51271 15.9413 6.33521 16.6321 6.78188C16.8896 6.94854 17.1005 7.17688 17.258 7.46271C17.4013 7.72188 17.4763 8.02271 17.4755 8.33521C17.4763 8.64521 17.4021 8.94604 17.258 9.20438C17.1005 9.49021 16.8896 9.71854 16.6321 9.88521C15.9405 10.331 15.5938 11.1544 15.7713 11.9335C15.8405 12.2385 15.8296 12.556 15.7371 12.876C15.5721 13.451 15.0938 13.9294 14.5188 14.0935C14.1988 14.1852 13.8813 14.196 13.5763 14.1277C12.7963 13.9527 11.9738 14.2969 11.528 14.9885C11.3613 15.246 11.133 15.4569 10.848 15.6144C10.3246 15.9052 9.64796 15.9052 9.12546 15.6144L9.12713 15.6152ZM19.123 16.4419C19.028 16.7169 18.7996 16.8977 18.5113 16.9277L17.2413 17.0585C17.0505 17.0785 16.898 17.226 16.8713 17.416L16.7146 18.5444C16.6763 18.8219 16.4946 19.041 16.2296 19.1319C15.9663 19.2219 15.688 19.1602 15.4863 18.9627L12.0746 15.656C12.1296 15.5869 12.1813 15.5152 12.2296 15.441C12.488 15.0427 12.958 14.8419 13.393 14.941C13.8363 15.041 14.293 15.0269 14.7496 14.8952C15.543 14.6685 16.1888 14.0644 16.4763 13.296L18.9405 15.6819C19.1496 15.8835 19.218 16.1685 19.123 16.4419Z" fill="currentColor"/>
</svg>
