<svg width="21" height="16" viewBox="0 0 21 16" fill="none" xmlns="http://www.w3.org/2000/svg">
<path fill-rule="evenodd" clip-rule="evenodd" d="M10.2122 0C10.4707 0 10.9614 0.0751684 11.5316 0.176515C12.122 0.281456 12.852 0.426446 13.6218 0.586387C15.1625 0.906477 17.1945 0.995757 18.1494 1.61456L18.1374 1.62254C18.5373 1.74599 18.8863 2.0217 19.0958 2.41336L20.115 4.31613C20.4553 4.8803 20.5212 5.58071 20.2855 6.2189C20.0506 6.85714 19.5444 7.3469 18.8993 7.5622L18.7188 7.62204V10.7076C18.7178 12.3566 17.6633 13.8161 16.095 14.3386L11.9544 15.7188C11.3904 15.9068 10.7982 16 10.2052 16C9.6121 16 9.01926 15.9068 8.45506 15.7188L4.31743 14.3396C2.74994 13.817 1.69864 12.3553 1.69864 10.7036L1.70462 7.62204L1.52511 7.5632C0.880169 7.34786 0.373772 6.85807 0.138925 6.2199C-0.0967613 5.58167 -0.0301669 4.88108 0.320426 4.29818L1.32965 2.41336C1.54078 2.01853 1.89322 1.74063 2.29699 1.61855L2.28403 1.60858C3.25044 1.00815 5.262 0.906403 6.8026 0.586387C7.57237 0.426464 8.3025 0.28146 8.89285 0.176515C9.46289 0.0751891 9.95365 5.79453e-05 10.2122 0ZM10.6251 15.1304C10.985 15.0981 11.3414 15.0248 11.6852 14.91L15.8268 13.5298C17.0468 13.1238 17.868 11.9897 17.8682 10.7076V7.90626L14.3768 9.07006C14.1437 9.14739 13.9056 9.18474 13.6717 9.18474C12.9152 9.18473 12.1974 8.79418 11.7889 8.11169L10.6301 5.97557L10.6251 15.1304ZM8.64454 8.09673C8.22756 8.79104 7.50804 9.1847 6.75074 9.18474C6.51757 9.18474 6.27985 9.1475 6.04668 9.07006L2.55428 7.90526L2.55029 10.7036C2.54944 11.9886 3.36822 13.124 4.58769 13.5308L8.72531 14.91C9.06562 15.024 9.41796 15.0971 9.77443 15.1294L9.77941 6.00548L8.64454 8.09673ZM2.77169 2.4014C2.4883 2.4014 2.21915 2.555 2.07959 2.81626L1.06039 4.71902C0.832556 5.09761 0.792265 5.53099 0.937729 5.9257C1.08415 6.31956 1.39636 6.6237 1.79537 6.75642L6.31694 8.26328C6.9219 8.46816 7.5763 8.22468 7.90557 7.67589L9.58395 4.5824L3.01502 2.44029C2.93428 2.41394 2.85243 2.40143 2.77169 2.4014ZM18.3469 2.81526C18.1674 2.48098 17.7755 2.31962 17.4114 2.43929L10.8425 4.5814L12.5289 7.69085C12.848 8.22249 13.5002 8.46562 14.1085 8.26228L18.6301 6.75542C19.029 6.62178 19.3414 6.31954 19.4877 5.9257L19.4887 5.92471C19.6342 5.53081 19.5937 5.09773 19.376 4.73697L18.3469 2.81526ZM10.2122 1.02219C10.062 1.02226 9.66754 1.07578 9.07136 1.18175C8.49501 1.28421 7.77583 1.42654 7.01003 1.58564C6.01771 1.79173 4.8689 1.77706 4.04419 1.87983L10.2132 3.8913L15.9056 2.03441C15.1466 1.91743 14.2277 1.7546 13.4144 1.58564C12.6485 1.42652 11.9295 1.2842 11.3531 1.18175C10.7566 1.07573 10.3622 1.02219 10.2122 1.02219Z" fill="currentColor"/>
</svg>
