<svg width="20" height="20" viewBox="0 0 20 20" fill="none" xmlns="http://www.w3.org/2000/svg">
<g clip-path="url(#clip0_354_4484)">
<path d="M9.18333 0H4.15083C2.39333 0 0.849167 1.25083 0.48 2.97417C0.161667 4.46 0 5.98333 0 7.5C0 10.5408 0.603333 14.3225 1.10833 16.9583C1.44583 18.7208 2.995 20 4.79083 20H8.54167C10.3375 20 11.8867 18.7208 12.2242 16.9583C12.7292 14.3217 13.3325 10.5408 13.3325 7.5C13.3325 5.98333 13.1717 4.46083 12.8533 2.97417C12.4775 1.22333 10.9675 0 9.1825 0L9.18333 0ZM4.15 0.833333H9.1825C10.5717 0.833333 11.7458 1.78583 12.0383 3.14833C12.1108 3.48583 12.1733 3.82583 12.2283 4.16667H1.10417C1.15917 3.82583 1.22167 3.48667 1.29417 3.14917C1.58667 1.78583 2.76083 0.833333 4.15 0.833333ZM11.4058 16.8017C11.1433 18.1725 9.93833 19.1667 8.54167 19.1667H4.79083C3.39417 19.1667 2.18917 18.1717 1.92667 16.8017C1.4275 14.2008 0.833333 10.4758 0.833333 7.5C0.833333 6.66583 0.89 5.83 0.990833 5H12.3425C12.4433 5.83 12.5 6.66583 12.5 7.5C12.5 10.4758 11.905 14.2008 11.4058 16.8017ZM17.5 10C18.4192 10 19.1667 9.2525 19.1667 8.33333C19.1667 7.41417 18.4192 6.66667 17.5 6.66667C16.5808 6.66667 15.8333 7.41417 15.8333 8.33333C15.8333 9.2525 16.5808 10 17.5 10ZM17.5 7.5C17.96 7.5 18.3333 7.87417 18.3333 8.33333C18.3333 8.7925 17.96 9.16667 17.5 9.16667C17.04 9.16667 16.6667 8.7925 16.6667 8.33333C16.6667 7.87417 17.04 7.5 17.5 7.5ZM6.66667 8.33333C4.82833 8.33333 3.33333 9.82833 3.33333 11.6667C3.33333 13.505 4.82833 15 6.66667 15C8.505 15 10 13.505 10 11.6667C10 9.82833 8.505 8.33333 6.66667 8.33333ZM6.66667 14.1667C5.28833 14.1667 4.16667 13.045 4.16667 11.6667C4.16667 10.2883 5.28833 9.16667 6.66667 9.16667C8.045 9.16667 9.16667 10.2883 9.16667 11.6667C9.16667 13.045 8.045 14.1667 6.66667 14.1667ZM17.7742 14.2583C17.8667 14.0342 17.9167 13.7917 17.9167 13.5417C17.9167 12.5075 17.075 11.6667 16.0417 11.6667C15.0083 11.6667 14.1667 12.5075 14.1667 13.5417C14.1667 14.17 14.4883 14.7333 14.9775 15.075C14.4775 15.5983 14.1667 16.3042 14.1667 17.0833C14.1667 18.6917 15.475 20 17.0833 20C18.6917 20 20 18.6917 20 17.0833C20 15.7142 19.0483 14.5708 17.7742 14.2583ZM16.0417 12.5C16.6158 12.5 17.0833 12.9675 17.0833 13.5417C17.0833 13.7833 16.9892 14.0067 16.8375 14.1917C16.4383 14.2258 16.065 14.3375 15.7275 14.5175C15.3067 14.38 15 13.9967 15 13.5425C15 12.9683 15.4675 12.5008 16.0417 12.5008V12.5ZM17.0833 19.1667C15.9342 19.1667 15 18.2317 15 17.0833C15 16.3875 15.3458 15.7733 15.8725 15.395C16.2608 15.2208 16.6017 14.9625 17.0833 15C18.2325 15 19.1667 15.935 19.1667 17.0833C19.1667 18.2317 18.2325 19.1667 17.0833 19.1667Z" fill="currentColor"/>
</g>
<defs>
<clipPath id="clip0_354_4484">
<rect width="20" height="20" fill="white"/>
</clipPath>
</defs>
</svg>
