<svg width="20" height="20" viewBox="0 0 20 20" fill="none" xmlns="http://www.w3.org/2000/svg">
<g clip-path="url(#clip0_354_4519)">
<path d="M9.95344 1.07583C9.32344 0.3925 8.42927 0 7.49844 0H3.33511C2.40427 0 1.51011 0.3925 0.880106 1.07583C0.251773 1.7575 -0.064894 2.67833 0.0117727 3.6025C0.415106 8.47 1.59594 15.0608 1.66677 15.455V17.5C1.66677 18.8783 2.78844 20 4.16677 20H6.66677C8.04511 20 9.16677 18.8783 9.16677 17.5V15.455C9.23761 15.0608 10.4193 8.47 10.8218 3.60167C10.8984 2.67833 10.5818 1.7575 9.95344 1.07583ZM1.49261 1.64083C1.97177 1.12 2.62594 0.833333 3.33511 0.833333H7.49844C8.20761 0.833333 8.86177 1.12 9.34094 1.64083C9.81844 2.15917 10.0501 2.83167 9.99177 3.53333C9.63427 7.84917 8.65511 13.5575 8.40094 15H2.43261C2.17761 13.5575 1.19927 7.84917 0.841773 3.53333C0.784273 2.83083 1.01511 2.15917 1.49261 1.64083ZM8.33344 17.5C8.33344 18.4192 7.58594 19.1667 6.66677 19.1667H4.16677C3.24761 19.1667 2.50011 18.4192 2.50011 17.5V15.8333H8.33344V17.5ZM20.0001 7.08333C20.0001 7.31333 19.8134 7.5 19.5834 7.5H17.4793C17.4301 8.04 17.2851 8.55083 17.0643 9.02083L18.8426 10.0567C19.0409 10.1725 19.1084 10.4275 18.9926 10.6267C18.9151 10.76 18.7759 10.8342 18.6326 10.8342C18.5609 10.8342 18.4884 10.8158 18.4226 10.7775L16.6434 9.74167C16.3443 10.16 15.9776 10.525 15.5584 10.8225L16.6101 12.6308C16.7259 12.83 16.6584 13.085 16.4584 13.2008C16.3926 13.2392 16.3209 13.2575 16.2493 13.2575C16.1059 13.2575 15.9659 13.1833 15.8884 13.05L14.8359 11.24C14.3709 11.4558 13.8659 11.5975 13.3326 11.6458V13.75C13.3326 13.98 13.1459 14.1667 12.9159 14.1667C12.6859 14.1667 12.4993 13.98 12.4993 13.75V11.635C12.1734 11.6058 11.8518 11.5542 11.5409 11.4567C11.3218 11.3875 11.2001 11.1533 11.2693 10.9342C11.3376 10.715 11.5684 10.5925 11.7918 10.6617C12.1543 10.7758 12.5326 10.8333 12.9168 10.8333C14.9843 10.8333 16.6668 9.15083 16.6668 7.08333C16.6668 5.01583 14.9843 3.33333 12.9168 3.33333C12.6868 3.33333 12.5001 3.14667 12.5001 2.91667V0.416667C12.5001 0.186667 12.6868 0 12.9168 0C13.1468 0 13.3334 0.186667 13.3334 0.416667V2.51833C13.8726 2.5675 14.3801 2.71833 14.8493 2.93833L15.8893 1.15C16.0068 0.950833 16.2601 0.885 16.4593 0.999167C16.6584 1.115 16.7259 1.37 16.6109 1.56917L15.5693 3.35917C15.9843 3.655 16.3401 4.02083 16.6359 4.43583L18.4326 3.39C18.6293 3.275 18.8859 3.34083 19.0026 3.54083C19.1193 3.74 19.0518 3.99417 18.8526 4.11083L17.0568 5.15667C17.2751 5.62417 17.4109 6.13083 17.4609 6.6675H19.5843C19.8143 6.6675 20.0009 6.85417 20.0009 7.08417L20.0001 7.08333Z" fill="currentColor"/>
</g>
<defs>
<clipPath id="clip0_354_4519">
<rect width="20" height="20" fill="white"/>
</clipPath>
</defs>
</svg>
