<svg width="31" height="28" viewBox="0 0 31 28" fill="none" xmlns="http://www.w3.org/2000/svg">
<path d="M30.2202 11.1308L25.3738 2.85842C24.3409 1.09577 22.4193 0 20.3574 0H10.6401C8.57941 0 6.65785 1.0945 5.62366 2.85842L0.778542 11.1308C-0.259514 12.9011 -0.259514 15.099 0.778542 16.8692L5.62495 25.1416C6.65914 26.9042 8.5807 28 10.6414 28H20.3586C22.4206 28 24.3421 26.9055 25.375 25.1416L30.2215 16.8692C31.2595 15.099 31.2582 12.9011 30.2202 11.1308ZM29.1061 16.2316L24.2597 24.504C23.4574 25.8746 21.9621 26.7273 20.3586 26.7273H10.6414C9.0392 26.7273 7.54393 25.8759 6.74028 24.504L1.89387 16.2316C1.08764 14.8546 1.08764 13.1454 1.89387 11.7684L6.74028 3.49602C7.54393 2.12536 9.0392 1.27267 10.6414 1.27267H20.3586C21.9621 1.27267 23.4574 2.12409 24.2597 3.49602L29.1061 11.7684C29.9124 13.1454 29.9124 14.8546 29.1061 16.2316ZM20.4179 9.99555L16.3661 13.9994L20.4179 18.0032C20.669 18.2514 20.669 18.6548 20.4179 18.903C20.2917 19.0277 20.1268 19.0888 19.962 19.0888C19.7971 19.0888 19.6323 19.0264 19.506 18.903L15.4543 14.8991L11.4025 18.903C11.2763 19.0277 11.1114 19.0888 10.9466 19.0888C10.7817 19.0888 10.6169 19.0264 10.4907 18.903C10.2395 18.6548 10.2395 18.2514 10.4907 18.0032L14.5424 13.9994L10.4907 9.99555C10.2395 9.74738 10.2395 9.34394 10.4907 9.09577C10.7418 8.8476 11.1501 8.8476 11.4012 9.09577L15.453 13.0996L19.5048 9.09577C19.7559 8.8476 20.1642 8.8476 20.4153 9.09577C20.6665 9.34394 20.6665 9.74738 20.4153 9.99555H20.4179Z" fill="#FF3B30"/>
</svg>
