<svg width="28" height="28" viewBox="0 0 28 28" fill="none" xmlns="http://www.w3.org/2000/svg">
<path d="M5.83338 14.0001C5.83105 14.0199 5.83221 13.9849 5.83338 14.0001V14.0001ZM21.5834 13.4167H7.10621C7.19255 13.1764 7.33371 12.9501 7.52855 12.7587L12.1345 8.04192C12.3597 7.81092 12.355 7.44108 12.124 7.21708C11.8942 6.99192 11.5255 6.99775 11.2992 7.22642L6.70138 11.9362C6.14255 12.4881 5.83338 13.2674 5.83338 14.0012C5.84155 14.7292 6.12155 15.5004 6.66871 16.0557L11.2455 20.8227C11.3599 20.9417 11.5127 21.0012 11.6667 21.0012C11.8125 21.0012 11.9584 20.9476 12.0704 20.8379C12.3025 20.6162 12.3107 20.2452 12.0879 20.0131L7.50521 15.2402C7.31621 15.0489 7.17971 14.8237 7.09805 14.5846H21.5834C21.9054 14.5846 22.1667 14.3232 22.1667 14.0012C22.1667 13.6792 21.9054 13.4179 21.5834 13.4179V13.4167Z" fill="black"/>
</svg>
