<svg width="20" height="20" viewBox="0 0 20 20" fill="none" xmlns="http://www.w3.org/2000/svg">
<path d="M10.875 14.3333C10.875 14.7013 10.5764 15 10.2084 15C9.84034 15 9.54167 14.7013 9.54167 14.3333C9.54167 13.9653 9.84034 13.6666 10.2084 13.6666C10.5764 13.6666 10.875 13.9653 10.875 14.3333ZM10.2084 12.6915C10.5534 12.6915 10.8334 12.3133 10.8334 12.0833V4.58333C10.8334 4.35333 10.5534 4 10.2084 4C9.86334 4 9.58333 4.35333 9.58333 4.58333V8.33333V10.2083V12.0833C9.58333 12.3133 9.86334 12.6915 10.2084 12.6915ZM20 10C20 15.5142 15.5142 20 10 20C4.48583 20 0 15.5142 0 10C0 4.48583 4.48583 0 10 0C15.5142 0 20 4.48583 20 10ZM19.1667 10C19.1667 4.94583 15.0542 0.833333 10 0.833333C4.94583 0.833333 0.833333 4.94583 0.833333 10C0.833333 15.0542 4.94583 19.1667 10 19.1667C15.0542 19.1667 19.1667 15.0542 19.1667 10Z" fill="currentColor"/>
</svg>
