<svg width="20" height="20" viewBox="0 0 20 20" fill="none" xmlns="http://www.w3.org/2000/svg">
<path d="M19.6815 10.2167H19.6799C19.6799 10.2167 19.6782 10.2117 19.6765 10.2083L17.9649 7.51417L15.2849 6.625C15.1649 6.8825 15.0299 7.13167 14.8749 7.36667L16.5974 7.93833L9.99569 10.1467L3.49319 7.97167L5.16902 7.435C5.01069 7.20083 4.87402 6.95083 4.74986 6.69417L1.99569 7.57583L0.312357 10.2083C0.312357 10.2083 0.31069 10.215 0.30819 10.2183H0.306523C0.114857 10.535 -0.000976562 10.8992 -0.000976562 11.25C-0.000976562 11.535 0.0281901 11.8233 0.129857 12.1008C0.361523 12.7258 0.856523 13.2042 1.48736 13.4142L1.67152 13.4758L1.66486 17.215L9.99569 19.9917L18.3257 17.215L18.3324 13.47L18.4982 13.415C19.1299 13.205 19.6249 12.7267 19.8565 12.1008C19.9432 11.8658 19.9982 11.6233 19.9982 11.3808C19.9982 10.9125 19.894 10.5742 19.6799 10.2183L19.6815 10.2167ZM0.912357 11.8117C0.769023 11.4225 0.809023 10.9992 1.02069 10.6475L2.40236 8.48583L9.36402 10.8142L7.73902 13.5233C7.42986 14.0375 6.76569 14.2933 6.18069 14.0983L1.75236 12.6225C1.36236 12.4933 1.05569 12.1967 0.91319 11.8108L0.912357 11.8117ZM2.49986 13.7533L5.91819 14.8908C6.13819 14.9642 6.36652 15.0008 6.59486 15.0008C7.35402 15.0008 8.06652 14.6 8.45319 13.9525L9.58486 12.0708L9.58236 18.9742L2.49402 16.615L2.49902 13.7542L2.49986 13.7533ZM17.4999 16.6142L10.414 18.9733L10.4165 12.0867L11.5349 13.9517C11.9215 14.5983 12.634 15 13.3932 15C13.6224 15 13.8499 14.9633 14.0707 14.89L17.5049 13.7475L17.4999 16.6142ZM19.0765 11.8108C18.9332 12.1975 18.6265 12.4933 18.2365 12.6233L13.809 14.0992C13.2199 14.2933 12.559 14.0392 12.2499 13.5242L10.6249 10.815L17.5932 8.48417L18.9682 10.6475C19.1799 10.9983 19.2199 11.4225 19.0765 11.8108ZM9.99986 8.33333C12.2974 8.33333 14.1665 6.46417 14.1665 4.16667C14.1665 1.86917 12.2974 0 9.99986 0C7.70236 0 5.83319 1.86917 5.83319 4.16667C5.83319 6.46417 7.70236 8.33333 9.99986 8.33333ZM9.99986 0.833333C11.8382 0.833333 13.3332 2.32833 13.3332 4.16667C13.3332 6.005 11.8382 7.5 9.99986 7.5C8.16152 7.5 6.66652 6.005 6.66652 4.16667C6.66652 2.32833 8.16152 0.833333 9.99986 0.833333Z" fill="currentColor"/>
</svg>
