<svg width="20" height="20" viewBox="0 0 20 20" fill="none" xmlns="http://www.w3.org/2000/svg">
<path d="M19.9992 9.3975C19.6708 4.12833 15.2858 0 10.015 0C4.4925 0 0 4.48583 0 10C0 15.5142 4.4925 20 10.015 20H20L19.9992 9.3975ZM19.1658 19.1667H10.015C4.9525 19.1667 0.833333 15.0542 0.833333 10C0.833333 4.94583 4.95167 0.833333 10.015 0.833333C14.8467 0.833333 18.8675 4.61833 19.1667 9.42417L19.1658 19.1667ZM10.8333 7.5H5.83333V6.66667H10.8333V7.5ZM5.83333 10H14.1667V10.8333H5.83333V10ZM5.83333 13.3333H14.1667V14.1667H5.83333V13.3333Z" fill="currentColor"/>
</svg>
