<svg width="28" height="28" viewBox="0 0 28 28" fill="none" xmlns="http://www.w3.org/2000/svg">
<path d="M11.3489 16.9358C11.7922 17.3092 12.3347 17.4982 12.876 17.4982C13.2656 17.4982 13.6553 17.4002 14.0088 17.2007L26.7914 10.8455C27.5474 10.4068 28 9.62155 28 8.7465C28 7.87145 27.5474 7.08623 26.7587 6.63004L14.0344 0.308655C13.1653 -0.181375 12.1107 -0.0810357 11.3489 0.56067C10.5871 1.20121 10.3082 2.2221 10.6594 3.208L13.1653 8.74883L10.6407 14.3352C10.3082 15.2756 10.5871 16.2965 11.3489 16.9358ZM11.7222 14.7704L13.9388 9.87007L21.8123 9.18053C22.2836 9.08602 22.2836 8.41165 21.8123 8.31714L13.9376 7.6276L11.7397 2.7728C11.5355 2.19527 11.791 1.71224 12.099 1.45322C12.2892 1.29455 12.5575 1.16971 12.8678 1.16971C13.0626 1.16971 13.2726 1.21871 13.4884 1.34005L26.2046 7.65793C26.5977 7.88545 26.8322 8.29264 26.8322 8.74767C26.8322 9.20269 26.5977 9.60872 26.2372 9.8199L13.4616 16.1716C12.9273 16.4691 12.407 16.3011 12.099 16.0444C11.791 15.7854 11.5355 15.3024 11.721 14.7704H11.7222ZM11.6673 27.4166C11.6673 27.7387 11.406 28 11.084 28H7.58418C7.2622 28 7.00087 27.7387 7.00087 27.4166C7.00087 27.0946 7.2622 26.8333 7.58418 26.8333H11.084C11.406 26.8333 11.6673 27.0946 11.6673 27.4166ZM28 23.9164C28 26.1682 26.1684 28 23.9168 28H14.5839C14.2619 28 14.0006 27.7387 14.0006 27.4166C14.0006 27.0946 14.2619 26.8333 14.5839 26.8333H23.9168C25.5256 26.8333 26.8334 25.5254 26.8334 23.9164C26.8334 22.3075 25.5256 20.9996 23.9168 20.9996H6.4164C2.87805 20.9996 0 18.1201 0 14.5825C0 11.045 2.87805 8.16546 6.4164 8.16546H9.91625C10.2382 8.16546 10.4996 8.42681 10.4996 8.74883C10.4996 9.07085 10.2382 9.3322 9.91625 9.3322H6.4164C3.52202 9.3322 1.16662 11.6878 1.16662 14.5825C1.16662 17.4772 3.52202 19.8328 6.4164 19.8328H23.9157C26.1672 19.8328 28 21.6646 28 23.9164ZM4.66764 27.4166C4.66764 27.7387 4.40632 28 4.08433 28H0.583309C0.261322 28 0 27.7387 0 27.4166C0 27.0946 0.261322 26.8333 0.583309 26.8333H4.08316C4.40515 26.8333 4.66764 27.0946 4.66764 27.4166Z" fill="currentColor"/>
</svg>
