<svg width="20" height="20" viewBox="0 0 20 20" fill="none" xmlns="http://www.w3.org/2000/svg">
<g clip-path="url(#clip0_345_3626)">
<path d="M16.25 0H3.75C1.6825 0 0 1.6825 0 3.75V11.25C0 13.3175 1.6825 15 3.75 15H16.25C18.3175 15 20 13.3175 20 11.25V3.75C20 1.6825 18.3175 0 16.25 0ZM19.1667 11.25C19.1667 12.8583 17.8583 14.1667 16.25 14.1667H3.75C2.14167 14.1667 0.833333 12.8583 0.833333 11.25V3.75C0.833333 2.14167 2.14167 0.833333 3.75 0.833333H16.25C17.8583 0.833333 19.1667 2.14167 19.1667 3.75V11.25ZM19.5842 17.9158H8.27417C8.0875 17.1992 7.44083 16.6658 6.66667 16.6658C5.8925 16.6658 5.24583 17.1992 5.05917 17.9158H0.416667C0.186667 17.9158 0 18.1025 0 18.3325C0 18.5625 0.186667 18.7492 0.416667 18.7492H5.05917C5.24583 19.4658 5.8925 19.9992 6.66667 19.9992C7.44083 19.9992 8.0875 19.4658 8.27417 18.7492H19.5833C19.8133 18.7492 20 18.5625 20 18.3325C20 18.1025 19.8142 17.9158 19.5842 17.9158ZM6.6675 19.1658C6.20833 19.1658 5.83417 18.7925 5.83417 18.3325C5.83417 17.8725 6.20833 17.4992 6.6675 17.4992C7.12667 17.4992 7.50083 17.8725 7.50083 18.3325C7.50083 18.7925 7.12667 19.1658 6.6675 19.1658Z" fill="currentColor"/>
<path d="M11.25 4.16663C10.57 4.16663 9.96337 4.52079 9.58337 5.06829C9.20337 4.52163 8.59671 4.16663 7.91671 4.16663C6.76754 4.16663 5.83337 5.17579 5.83337 6.41663C5.83337 8.49246 8.98337 10.7808 9.34254 11.035L9.58337 11.205L9.82421 11.035C10.1834 10.7808 13.3334 8.49246 13.3334 6.41663C13.3334 5.17579 12.3992 4.16663 11.25 4.16663ZM9.58337 10.1775C8.58921 9.42413 6.66671 7.70079 6.66671 6.41663C6.66671 5.63496 7.22754 4.99996 7.91671 4.99996C8.60587 4.99996 9.16671 5.63579 9.16671 6.41663V6.66663H10C10 6.66663 10.5609 4.99996 11.25 4.99996C11.9392 4.99996 12.5 5.63579 12.5 6.41663C12.5 7.69829 10.5767 9.42246 9.58337 10.1775Z" fill="currentColor"/>
</g>
<defs>
<clipPath id="clip0_345_3626">
<rect width="20" height="20" fill="white"/>
</clipPath>
</defs>
</svg>
