<svg width="17" height="20" viewBox="0 0 17 20" fill="none" xmlns="http://www.w3.org/2000/svg">
<path d="M8.33333 19.9608C3.73833 19.9608 0 16.2225 0 11.6275C0 8.745 1.96917 6.67083 3.89583 5.02083L4.87667 4.18083L4.57167 5.43583C4.435 5.99917 4.16667 7.70167 4.16667 9.0875C4.16667 11.1958 4.39167 13.2542 7.08333 13.2542C8.295 13.2542 9.15083 12.3958 9.16667 11.1658C9.18083 10.0558 8.73917 9.075 8.3125 8.12667C7.91333 7.23917 7.5 6.32083 7.5 5.3375C7.5 3.05833 9.16917 0.62 9.24083 0.5175L9.59917 0L9.93583 0.531667C10.6808 1.70667 11.6567 2.81583 12.6008 3.88833C14.6 6.16 16.6667 8.50833 16.6667 11.6275C16.6667 16.2225 12.9283 19.9608 8.33333 19.9608ZM3.54333 6.45833C2.09417 7.83917 0.834167 9.51167 0.833333 11.6275C0.833333 15.7633 4.19833 19.1275 8.33333 19.1275C12.4683 19.1275 15.8333 15.7633 15.8333 11.6275C15.8333 8.8225 13.9592 6.69333 11.975 4.43833C11.1542 3.50667 10.3092 2.54583 9.59583 1.52417C9.12917 2.32667 8.33333 3.905 8.33333 5.3375C8.33333 6.14167 8.6925 6.94 9.0725 7.785C9.515 8.76833 10.0158 9.8825 10 11.1758C9.97917 12.8625 8.75167 14.0875 7.08333 14.0875C3.33333 14.0875 3.33333 10.71 3.33333 9.0875C3.33333 8.21167 3.43167 7.235 3.54333 6.45833Z" fill="currentColor"/>
</svg>
