<svg width="20" height="20" viewBox="0 0 20 20" fill="none" xmlns="http://www.w3.org/2000/svg">
<g clip-path="url(#clip0_345_3806)">
<path d="M10 20C4.48333 20 0 15.5167 0 10C0 4.48333 4.48333 0 10 0C15.5167 0 20 4.48333 20 10C20 15.5167 15.5167 20 10 20ZM10 0.833333C4.94167 0.833333 0.833333 4.94167 0.833333 10C0.833333 15.0583 4.94167 19.1667 10 19.1667C15.0583 19.1667 19.1667 15.0583 19.1667 10C19.1667 4.94167 15.0583 0.833333 10 0.833333Z" fill="currentColor"/>
<path d="M12.2917 6C11.2925 6 10.4675 6.455 10 7.18417C9.5325 6.455 8.7075 6 7.70833 6C6.215 6 5 7.2975 5 8.89167C5 11.67 9.5675 14.875 9.7625 15.01L10 15.1742L10.2375 15.01C10.4317 14.875 15 11.67 15 8.89167C15 7.2975 13.785 6 12.2917 6ZM10 14.155C8.64583 13.1625 5.83333 10.7208 5.83333 8.89167C5.83333 7.7575 6.67417 6.83333 7.70833 6.83333C8.8125 6.83333 9.58333 7.58667 9.58333 8.66667V9.33333H10.4167V8.66667C10.4167 7.58667 11.1875 6.83333 12.2917 6.83333C13.3258 6.83333 14.1667 7.75667 14.1667 8.89167C14.1667 10.7208 11.3542 13.1625 10 14.155Z" fill="currentColor"/>
</g>
<defs>
<clipPath id="clip0_345_3806">
<rect width="20" height="20" fill="white"/>
</clipPath>
</defs>
</svg>
