<svg width="18" height="20" viewBox="0 0 18 20" fill="none" xmlns="http://www.w3.org/2000/svg">
<path d="M2.82394 2.79998L2.4731 3.85248C2.3631 4.22498 1.7931 4.22498 1.6831 3.85248L1.3306 2.79498L0.272271 2.42081C-0.098562 2.30331 -0.0877286 1.73415 0.287271 1.63081L1.33394 1.30331L1.6831 0.255812C1.79644 -0.0841878 2.35977 -0.0841878 2.4731 0.255812L2.82394 1.30831L3.87644 1.65915C4.24894 1.76915 4.24894 2.33915 3.87644 2.44915L2.82394 2.79998ZM2.74894 6.59581C2.40727 6.46498 2.4181 5.93915 2.76394 5.82165L4.37811 5.21081L5.02477 3.59581C5.14977 3.27831 5.67227 3.27831 5.79811 3.59581L6.44644 5.21498L8.06561 5.86331C8.40894 5.98665 8.40894 6.51331 8.06561 6.63665L6.44644 7.28498L5.79811 8.90415C5.67477 9.24748 5.14811 9.24748 5.02477 8.90415L4.37477 7.28081L2.74894 6.59581ZM4.03227 6.23165L4.85811 6.57998C4.96061 6.62331 5.04227 6.70581 5.08311 6.80915L5.41144 7.62748L5.73977 6.80915C5.78227 6.70331 5.8656 6.61915 5.97144 6.57748L6.78977 6.24915L5.97144 5.92081C5.8656 5.87831 5.78144 5.79498 5.73977 5.68915L5.41144 4.87081L5.08311 5.68915C5.03977 5.79748 4.95311 5.88248 4.84394 5.92415L4.03227 6.23165ZM11.3173 15.7016L11.6364 18.0533C11.8364 19.0216 10.9939 20.0291 9.99394 19.9991C8.98394 20.0241 8.1506 19.0233 8.35394 18.0358L8.6506 15.7066C5.57894 15.125 3.12727 12.58 2.59644 9.23081C2.5606 9.00415 2.71644 8.79081 2.9431 8.75415C3.16644 8.71831 3.38394 8.87331 3.41977 9.10081C3.95811 12.5258 6.7406 14.985 9.99394 14.9991C13.6548 14.9883 16.6648 11.8283 16.6606 7.91581C16.6606 4.00998 13.6698 0.832479 9.99394 0.832479C8.67894 0.832479 7.40727 1.23831 6.31811 2.00665C6.12977 2.13831 5.87061 2.09331 5.73727 1.90581C5.60561 1.71748 5.65061 1.45748 5.83811 1.32498C7.06977 0.457479 8.50644 -0.000854492 9.99394 -0.000854492C14.1298 -0.000854492 17.4939 3.55081 17.4939 7.91581C17.4939 11.8041 14.8231 15.0391 11.3173 15.7016ZM10.4906 15.8058C10.1556 15.8383 9.81227 15.8383 9.47727 15.8083L9.17727 18.1625C9.12894 18.4275 9.19477 18.6766 9.35394 18.8666C9.67144 19.2475 10.3156 19.2475 10.6331 18.8666C10.7914 18.6766 10.8581 18.4283 10.8131 18.1841L10.4906 15.8066V15.8058Z" fill="currentColor"/>
</svg>
