<svg width="20" height="20" viewBox="0 0 20 20" fill="none" xmlns="http://www.w3.org/2000/svg">
<path d="M16.25 10.8333H7.08333C6.85333 10.8333 6.66667 10.6467 6.66667 10.4167C6.66667 10.1867 6.85333 10 7.08333 10H16.25C16.48 10 16.6667 10.1867 16.6667 10.4167C16.6667 10.6467 16.48 10.8333 16.25 10.8333ZM10.4167 7.5H16.25C16.48 7.5 16.6667 7.31333 16.6667 7.08333C16.6667 6.85333 16.48 6.66667 16.25 6.66667H10.4167C10.1867 6.66667 10 6.85333 10 7.08333C10 7.31333 10.1867 7.5 10.4167 7.5ZM7.08333 13.3333C6.85333 13.3333 6.66667 13.52 6.66667 13.75C6.66667 13.98 6.85333 14.1667 7.08333 14.1667H10.4167C10.6467 14.1667 10.8333 13.98 10.8333 13.75C10.8333 13.52 10.6467 13.3333 10.4167 13.3333H7.08333ZM3.75 8.33333C2.60167 8.33333 1.66667 7.39917 1.66667 6.25V4.125C0.716667 3.93167 0 3.08917 0 2.08333C0 0.934167 0.935 0 2.08333 0C2.59833 0 3.09167 0.193333 3.47 0.5325C4.34333 -0.150833 5.65667 -0.150833 6.53 0.5325C6.90833 0.194167 7.40167 0 7.91667 0C9.065 0 10 0.934167 10 2.08333C10 3.08917 9.28333 3.93167 8.33333 4.125V6.25C8.33333 7.39917 7.39833 8.33333 6.25 8.33333H3.75ZM3.75 7.5H6.25C6.93917 7.5 7.5 6.93917 7.5 6.25V3.75C7.5 3.52 7.68667 3.33333 7.91667 3.33333C8.60583 3.33333 9.16667 2.7725 9.16667 2.08333C9.16667 1.39417 8.60583 0.833333 7.91667 0.833333C7.5125 0.833333 7.13083 1.0325 6.89583 1.36667C6.8225 1.47083 6.705 1.53583 6.57833 1.5425C6.4475 1.55583 6.3275 1.4975 6.24333 1.4025C5.595 0.668333 4.40583 0.668333 3.7575 1.4025C3.67333 1.49833 3.55333 1.56 3.4225 1.5425C3.295 1.53583 3.17833 1.47083 3.105 1.36667C2.87 1.03333 2.48833 0.833333 2.08417 0.833333C1.395 0.833333 0.834167 1.39417 0.834167 2.08333C0.834167 2.7725 1.395 3.33333 2.08417 3.33333C2.31417 3.33333 2.50083 3.52 2.50083 3.75V6.25C2.50083 6.93917 3.06083 7.5 3.75 7.5ZM20 3.75V11.6792C20 13.1258 19.4358 14.4867 18.4133 15.51L15.51 18.4133C14.4867 19.4367 13.1267 20 11.6792 20H7.08333C5.01583 20 3.33333 18.3175 3.33333 16.25V10.4167C3.33333 10.1867 3.52 10 3.75 10C3.98 10 4.16667 10.1867 4.16667 10.4167V16.25C4.16667 17.8583 5.475 19.1667 7.08333 19.1667H11.6792C11.9583 19.1667 12.2317 19.135 12.5 19.0867V14.5833C12.5 13.4342 13.4342 12.5 14.5833 12.5H19.0867C19.135 12.2308 19.1667 11.9575 19.1667 11.6792V3.75C19.1667 2.14167 17.8583 0.833333 16.25 0.833333H12.0833C11.8533 0.833333 11.6667 0.646667 11.6667 0.416667C11.6667 0.186667 11.8533 0 12.0833 0H16.25C18.3175 0 20 1.6825 20 3.75ZM18.85 13.3333H14.5833C13.8942 13.3333 13.3333 13.8942 13.3333 14.5833V18.8508C13.92 18.6233 14.4617 18.2825 14.92 17.8242L17.8233 14.9208C18.2817 14.4625 18.6225 13.92 18.85 13.3333Z" fill="currentColor"/>
</svg>
