<svg width="19" height="20" viewBox="0 0 19 20" fill="none" xmlns="http://www.w3.org/2000/svg">
<path d="M5.56417 6.90667C5.89 7.2325 5.89 7.76 5.56417 8.085C5.23833 8.41083 4.71083 8.41083 4.38583 8.085C4.06 7.75917 4.06 7.23167 4.38583 6.90667C4.71167 6.58083 5.23917 6.58083 5.56417 6.90667ZM17.7375 11.2383L17.3817 11.6058C17.5783 12.285 17.41 13.0475 16.8758 13.5817L11.2375 19.4042C10.8542 19.7875 10.3517 19.9958 9.81667 19.9958C9.28167 19.9958 8.77917 19.7875 8.40083 19.4092L0 11.0083L0.8425 3.3875L8.47 2.34417L16.8758 10.7492C16.9058 10.7792 16.9342 10.81 16.9617 10.8408L17.1442 10.6525C17.3692 10.4283 17.49 10.1342 17.49 9.82083C17.49 9.5075 17.3683 9.21333 17.1492 8.99417L9.03583 0.881667L2.13917 1.825L2.02667 0.999167L9.3325 0L17.7383 8.405C18.52 9.18583 18.52 10.4567 17.7383 11.2375L17.7375 11.2383ZM16.2867 11.3392L8.17417 3.22583L1.59917 4.125L0.8725 10.7025L8.99 18.82C9.43083 19.2617 10.2025 19.2617 10.6433 18.82L16.2817 12.9975C16.7425 12.5367 16.7425 11.795 16.2867 11.3392Z" fill="currentColor"/>
</svg>
