<svg width="20" height="20" viewBox="0 0 20 20" fill="none" xmlns="http://www.w3.org/2000/svg">
<path d="M19.6966 8.56708L18.6991 6.70375C18.3333 6.01958 17.5324 5.69625 16.7899 5.93708L10.0008 8.15125L3.21078 5.93708C2.46661 5.69542 1.66744 6.01958 1.30161 6.70375L0.313278 8.54958C-0.0300557 9.12042 -0.0950557 9.80625 0.135778 10.4313C0.365778 11.0563 0.861611 11.5354 1.49328 11.7463L1.66828 11.8046L1.66328 14.8221C1.66328 16.4396 2.69244 17.8704 4.22744 18.3821L8.27911 19.7329C8.83161 19.9171 9.41161 20.0088 9.99244 20.0088C10.5733 20.0088 11.1533 19.9171 11.7058 19.7329L15.7608 18.3813C17.2966 17.8696 18.3291 16.4404 18.3299 14.8254V11.8046L18.5066 11.7454C19.1383 11.5346 19.6341 11.0554 19.8641 10.4304C20.0949 9.80542 20.0299 9.11958 19.6966 8.56708ZM0.917444 10.1429C0.774944 9.75625 0.814944 9.33208 1.03828 8.96125L2.03578 7.09792C2.17244 6.84208 2.43578 6.69208 2.71328 6.69208C2.79244 6.69208 2.87244 6.70458 2.95161 6.73042L9.38411 8.82792L7.74078 11.8571C7.41828 12.3946 6.77744 12.6329 6.18494 12.4321L1.75744 10.9563C1.36661 10.8263 1.06078 10.5288 0.917444 10.1429ZM9.57078 19.1563C9.22161 19.1246 8.87661 19.0529 8.54328 18.9412L4.49161 17.5904C3.29744 17.1921 2.49578 16.0804 2.49661 14.8221L2.50078 12.0821L5.92078 13.2221C6.14911 13.2979 6.38161 13.3346 6.60994 13.3346C7.35161 13.3346 8.05578 12.9488 8.46411 12.2688L9.57578 10.2213L9.57078 19.1563ZM17.4966 14.8254C17.4966 16.0813 16.6924 17.1921 15.4974 17.5896L11.4424 18.9412C11.1058 19.0537 10.7566 19.1254 10.4041 19.1571L10.4091 10.1921L11.5441 12.2838C11.9441 12.9521 12.6466 13.3346 13.3874 13.3346C13.6166 13.3346 13.8499 13.2979 14.0783 13.2221L17.4966 12.0829V14.8254ZM19.0824 10.1429C18.9391 10.5288 18.6333 10.8246 18.2424 10.9554L13.8149 12.4313C13.2191 12.6304 12.5808 12.3921 12.2683 11.8713L10.6166 8.82708L17.0491 6.72958C17.4058 6.61208 17.7899 6.76958 17.9658 7.09708L18.9733 8.97875C19.1866 9.33208 19.2266 9.75625 19.0841 10.1421L19.0824 10.1429ZM3.96578 4.87542C3.80494 4.71208 3.80661 4.44708 3.97078 4.28625L7.95578 0.36375C8.43911 -0.12125 9.23244 -0.122083 9.72078 0.36625L11.2916 1.93708C11.7649 1.51375 12.5541 1.52625 13.0108 1.98292L15.3058 4.27708C15.4683 4.43958 15.4683 4.70375 15.3058 4.86625C15.1433 5.02875 14.8791 5.02875 14.7166 4.86625L12.4216 2.57208C12.2591 2.40958 11.9949 2.40958 11.8324 2.57208L8.20828 6.13042C8.12661 6.21042 8.02078 6.25042 7.91578 6.25042C7.80744 6.25042 7.69994 6.20875 7.61911 6.12625C7.45828 5.96208 7.46078 5.69792 7.62411 5.53708L10.6958 2.52125L9.13078 0.95625C8.96828 0.79375 8.70411 0.79375 8.54161 0.95625L4.55494 4.87958C4.47328 4.95958 4.36828 4.99958 4.26244 4.99958C4.15494 4.99958 4.04661 4.95792 3.96578 4.87542Z" fill="currentColor"/>
</svg>
