<svg width="20" height="20" viewBox="0 0 20 20" fill="none" xmlns="http://www.w3.org/2000/svg">
<g clip-path="url(#clip0_346_4311)">
<path d="M19.8783 19.2883L14.5042 13.9142C15.8433 12.435 16.6675 10.4808 16.6675 8.33333C16.6667 3.73833 12.9283 0 8.33333 0C3.73833 0 0 3.73833 0 8.33333C0 12.9283 3.73833 16.6667 8.33333 16.6667C10.4808 16.6667 12.435 15.8433 13.9142 14.5033L19.2883 19.8775L19.8783 19.2883ZM8.33333 15.8333C4.19833 15.8333 0.833333 12.4683 0.833333 8.33333C0.833333 4.19833 4.19833 0.833333 8.33333 0.833333C12.4683 0.833333 15.8333 4.19833 15.8333 8.33333C15.8333 12.4683 12.4692 15.8333 8.33333 15.8333Z" fill="currentColor"/>
</g>
<defs>
<clipPath id="clip0_346_4311">
<rect width="20" height="20" fill="white"/>
</clipPath>
</defs>
</svg>
