<svg width="16" height="16" viewBox="0 0 16 16" fill="none" xmlns="http://www.w3.org/2000/svg">
<g clip-path="url(#clip0_345_3951)">
<path d="M14.332 2.80073L1.94961 1.50165C1.37074 1.43254 0.836398 1.70683 0.555518 2.21813C0.274268 2.7302 0.328783 3.32867 0.727798 3.81041L5.11973 7.86856L4.24157 13.8011C4.23306 14.3847 4.5625 14.8875 5.10166 15.1127C5.4328 15.2515 5.78387 15.2596 6.0996 15.1497C6.29744 15.0808 6.48062 14.9662 6.63761 14.8074L15.49 6.12204C16.035 5.58994 16.2179 4.81165 15.9666 4.09172C15.7162 3.37215 15.0885 2.87791 14.332 2.80073ZM1.16394 3.40006C0.911063 3.09169 0.955399 2.73704 1.08147 2.50767C1.16491 2.35666 1.31251 2.20556 1.51828 2.13393C1.62428 2.09704 1.74537 2.08157 1.88073 2.09798C1.88186 2.09758 1.88395 2.09812 1.88529 2.0983L14.2698 3.39792C14.6982 3.44191 15.0555 3.66691 15.2706 4.01639L5.51105 7.41346L1.16394 3.40006ZM15.0697 5.6941L6.2141 14.3831C5.93308 14.6658 5.57578 14.6599 5.33416 14.5592C5.09254 14.4584 4.83645 14.2083 4.83896 13.8486L5.70977 7.97889L15.4687 4.58201C15.5194 4.99061 15.3795 5.39188 15.0697 5.6941Z" fill="currentColor"/>
</g>
<defs>
<clipPath id="clip0_345_3951">
<rect width="16" height="16" fill="white"/>
</clipPath>
</defs>
</svg>
