<svg width="20" height="20" viewBox="0 0 20 20" fill="none" xmlns="http://www.w3.org/2000/svg">
<path d="M19.3175 8.04496C18.9033 7.66912 18.365 7.47246 17.81 7.50246C17.2517 7.52829 16.7367 7.76996 16.3608 8.18329L13.2508 11.6025C12.9892 10.6791 12.1383 9.99996 11.1325 9.99996H2.91667C1.30833 9.99996 0 11.3083 0 12.9166V17.0833C0 18.6916 1.30833 20 2.91667 20H7.8875C10.1425 20 12.2975 19.0341 13.7983 17.35L19.47 10.9833C20.2283 10.1316 20.1608 8.81329 19.3175 8.04496ZM18.8483 10.4283L13.1767 16.795C11.8333 18.3025 9.90583 19.1666 7.8875 19.1666H2.91667C1.76833 19.1666 0.833333 18.2325 0.833333 17.0833V12.9166C0.833333 11.7675 1.76833 10.8333 2.91667 10.8333H11.1317C11.8858 10.8333 12.5 11.4475 12.5 12.2025C12.5 12.8791 11.995 13.4616 11.3342 13.5558L6.2 14.17C5.97167 14.1966 5.80833 14.4041 5.83583 14.6333C5.86417 14.8608 6.06417 15.0333 6.29917 14.9975L11.4417 14.3825C12.2933 14.2608 12.98 13.6508 13.23 12.8625L16.9758 8.74662C17.2025 8.49746 17.5125 8.35162 17.8483 8.33662C18.18 8.31912 18.5067 8.43746 18.755 8.66329C19.2617 9.12662 19.3033 9.91912 18.8467 10.4308L18.8483 10.4283ZM4.33083 5.64996L3.76167 7.47412C3.62167 7.92329 3.77917 8.41412 4.15667 8.69746C4.35 8.84246 4.58083 8.91912 4.8225 8.91912C5.0425 8.91912 5.25667 8.85412 5.44083 8.73079L7.0925 7.62579L8.775 8.72079C9.17083 8.97746 9.68583 8.95496 10.0592 8.66912C10.4333 8.38162 10.5842 7.88746 10.4367 7.43996L9.84667 5.64329L11.2717 4.48079C11.6275 4.18329 11.76 3.68829 11.6008 3.24912C11.4417 2.81329 11.0217 2.51912 10.5567 2.51912H8.76667L8.12583 0.720791C7.965 0.288291 7.54667 -0.00170898 7.08417 -0.00170898C6.62167 -0.00170898 6.20417 0.289124 6.04083 0.726624L5.40167 2.51912H3.61167C3.14833 2.51912 2.72917 2.81162 2.56917 3.24662C2.40917 3.68162 2.53917 4.17662 2.9 4.48246L4.33167 5.64746L4.33083 5.64996ZM3.35 3.53662C3.39 3.42746 3.495 3.35412 3.61083 3.35412H5.69417C5.87 3.35412 6.0275 3.24329 6.08667 3.07746L6.8225 1.01329C6.9025 0.796624 7.265 0.802458 7.34083 1.00746L8.07833 3.07662C8.1375 3.24246 8.295 3.35329 8.47083 3.35329H10.5542C10.6708 3.35329 10.7758 3.42662 10.815 3.53579C10.855 3.64579 10.8217 3.76829 10.7375 3.83912L9.095 5.17746C8.96083 5.28662 8.90833 5.46662 8.9625 5.63079L9.6425 7.70079C9.67917 7.81329 9.6425 7.93579 9.54917 8.00746C9.455 8.07912 9.325 8.08496 9.22667 8.02162L7.31417 6.77579C7.17417 6.68496 6.99417 6.68579 6.855 6.77912L4.97583 8.03746C4.87833 8.10246 4.745 8.09579 4.65417 8.02996C4.56 7.95912 4.52 7.83579 4.55583 7.72246L5.20917 5.62829C5.26 5.46579 5.20667 5.28829 5.07417 5.18079L3.43 3.84329C3.34167 3.76746 3.30833 3.64412 3.34833 3.53579L3.35 3.53662Z" fill="currentColor"/>
</svg>
