<svg width="20" height="16" viewBox="0 0 20 16" fill="none" xmlns="http://www.w3.org/2000/svg">
<path d="M20 13.75C20 13.98 19.8133 14.1667 19.5833 14.1667H15.4167C15.1867 14.1667 15 13.98 15 13.75C15 13.52 15.1867 13.3333 15.4167 13.3333H19.5833C19.8133 13.3333 20 13.52 20 13.75ZM6.66667 5C7.12667 5 7.5 4.62667 7.5 4.16667C7.5 3.70667 7.12667 3.33333 6.66667 3.33333C6.20667 3.33333 5.83333 3.70667 5.83333 4.16667C5.83333 4.62667 6.20667 5 6.66667 5ZM3.33333 5C3.79333 5 4.16667 4.62667 4.16667 4.16667C4.16667 3.70667 3.79333 3.33333 3.33333 3.33333C2.87333 3.33333 2.5 3.70667 2.5 4.16667C2.5 4.62667 2.87333 5 3.33333 5ZM13.3333 12.9167V14.5833C13.3333 15.2725 12.7725 15.8333 12.0833 15.8333C11.3942 15.8333 10.8333 15.2725 10.8333 14.5833V14.1667H0.416667C0.186667 14.1667 0 13.98 0 13.75C0 13.52 0.186667 13.3333 0.416667 13.3333H10.8333V12.9167C10.8333 12.2275 11.3942 11.6667 12.0833 11.6667C12.7725 11.6667 13.3333 12.2275 13.3333 12.9167ZM12.5 12.9167C12.5 12.6875 12.3125 12.5 12.0833 12.5C11.8542 12.5 11.6667 12.6875 11.6667 12.9167V14.5833C11.6667 14.8125 11.8542 15 12.0833 15C12.3125 15 12.5 14.8125 12.5 14.5833V12.9167ZM0 5C0 2.2425 2.2425 0 5 0C7.7575 0 10 2.2425 10 5C10 7.7575 7.7575 10 5 10C2.2425 10 0 7.7575 0 5ZM0.833333 5C0.833333 7.2975 2.7025 9.16667 5 9.16667C7.2975 9.16667 9.16667 7.2975 9.16667 5C9.16667 2.7025 7.2975 0.833333 5 0.833333C2.7025 0.833333 0.833333 2.7025 0.833333 5ZM16.6667 5C17.1267 5 17.5 4.62667 17.5 4.16667C17.5 3.70667 17.1267 3.33333 16.6667 3.33333C16.2067 3.33333 15.8333 3.70667 15.8333 4.16667C15.8333 4.62667 16.2067 5 16.6667 5ZM13.3333 5C13.7933 5 14.1667 4.62667 14.1667 4.16667C14.1667 3.70667 13.7933 3.33333 13.3333 3.33333C12.8733 3.33333 12.5 3.70667 12.5 4.16667C12.5 4.62667 12.8733 5 13.3333 5ZM10 5C10 2.2425 12.2425 0 15 0C17.7575 0 20 2.2425 20 5C20 7.7575 17.7575 10 15 10C12.2425 10 10 7.7575 10 5ZM10.8333 5C10.8333 7.2975 12.7025 9.16667 15 9.16667C17.2975 9.16667 19.1667 7.2975 19.1667 5C19.1667 2.7025 17.2975 0.833333 15 0.833333C12.7025 0.833333 10.8333 2.7025 10.8333 5ZM13.0383 6.09833C12.8758 6.26083 12.8758 6.525 13.0383 6.6875C13.5783 7.2275 14.2892 7.49917 15 7.49917C15.7108 7.49917 16.4208 7.22833 16.9617 6.6875C17.1242 6.525 17.1242 6.26083 16.9617 6.09833C16.7992 5.93583 16.535 5.93583 16.3725 6.09833C15.6158 6.855 14.385 6.855 13.6283 6.09833C13.4658 5.93583 13.2017 5.93583 13.0392 6.09833H13.0383ZM3.03833 7.23417C3.20083 7.39667 3.465 7.39667 3.6275 7.23417C4.36083 6.50167 5.63833 6.50167 6.37167 7.23417C6.53417 7.39667 6.79833 7.39667 6.96083 7.23417C7.12333 7.07167 7.12333 6.8075 6.96083 6.645C5.9125 5.59667 4.08667 5.59667 3.03833 6.645C2.87583 6.8075 2.87583 7.07167 3.03833 7.23417Z" fill="currentColor"/>
</svg>
