<svg width="20" height="20" viewBox="0 0 20 20" fill="none" xmlns="http://www.w3.org/2000/svg">
<path d="M18.6958 11.5998C18.4467 10.9357 18.0108 10.3782 17.47 9.95982C18.2108 9.55899 19.375 8.72649 19.9708 7.23816C20.0567 7.02482 19.9525 6.78232 19.7383 6.69732C19.5267 6.61149 19.2825 6.71482 19.1967 6.92899C18.5092 8.64816 16.8692 9.34649 16.5908 9.45482C16.1608 9.27899 15.6992 9.17399 15.2192 9.16982L15.4142 5.50649L16.5317 2.66482C16.8617 1.92149 16.5775 1.05149 15.8858 0.681491C15.0492 0.235657 14.1458 0.0156573 13.3408 -0.000176046C12.5475 -0.000176046 11.7008 0.212324 10.8733 0.630657C10.1208 1.01149 9.79583 1.90482 10.1267 2.64982L11.2542 5.50816L11.4533 9.16649H9.16667V6.24982C9.16667 5.70732 8.8175 5.24899 8.33333 5.07649V0.873991C8.33333 0.570657 8.17833 0.292324 7.91667 0.128991C7.65583 -0.030176 7.33833 -0.0443427 7.07083 0.092324L5.70333 0.776491C5.26917 0.992324 5 1.42649 5 1.91149V5.07566C4.51583 5.24816 4.16667 5.70649 4.16667 6.24899V9.22649C2.875 9.45399 1.76333 10.3507 1.295 11.6057L0.214167 14.5073C0.0716667 14.9332 0 15.3765 0 15.8265C0 18.1273 1.87167 19.999 4.1725 19.999H15.8275C18.1283 19.999 20 18.1273 20 15.8265C20 15.3765 19.9283 14.9332 19.7808 14.4923L18.6958 11.5982V11.5998ZM11.2492 1.37482C11.9583 1.01566 12.6467 0.830657 13.3408 0.833991C14.0167 0.820657 14.7775 1.03399 15.4917 1.41649C15.8 1.58066 15.9217 1.98066 15.7617 2.34232L14.7167 4.99982H11.9508L10.8958 2.32732C10.7383 1.97232 10.8933 1.55482 11.2492 1.37482ZM12.1067 5.83316H14.5608L14.3842 9.16649H12.2883L12.1067 5.83316ZM5.83333 1.91232C5.83333 1.74649 5.92583 1.59649 6.075 1.52232L7.5 0.873991V4.99982H5.83333V1.91232ZM5 6.24982C5 6.02066 5.18667 5.83316 5.41667 5.83316H7.91667C8.14667 5.83316 8.33333 6.02066 8.33333 6.24982V9.16649H5V6.24982ZM15.8275 19.1665H4.1725C2.33167 19.1665 0.833333 17.6682 0.833333 15.8273C0.833333 15.4673 0.890833 15.1132 1 14.7857L2.07583 11.8973C2.49917 10.7623 3.5975 9.99982 4.80917 9.99982H15.1842C16.3933 9.99982 17.4908 10.7607 17.915 11.8923L18.995 14.7715C19.1083 15.1123 19.1667 15.4673 19.1667 15.8273C19.1667 17.6682 17.6692 19.1665 15.8275 19.1665Z" fill="currentColor"/>
</svg>
