<svg preserveAspectRatio="none" width="100%" height="100%" overflow="visible" style="display: block;" viewBox="0 0 19.9972 20.0017" fill="none" xmlns="http://www.w3.org/2000/svg">
<path id="Vector" d="M19.3175 8.04667C18.9033 7.67083 18.365 7.47417 17.81 7.50417C17.2517 7.53 16.7367 7.77167 16.3608 8.185L13.2508 11.6042C12.9892 10.6808 12.1383 10.0017 11.1325 10.0017H2.91667C1.30833 10.0017 0 11.31 0 12.9183V17.085C0 18.6933 1.30833 20.0017 2.91667 20.0017H7.8875C10.1425 20.0017 12.2975 19.0358 13.7983 17.3517L19.47 10.985C20.2283 10.1333 20.1608 8.815 19.3175 8.04667ZM18.8483 10.43L13.1767 16.7967C11.8333 18.3042 9.90583 19.1683 7.8875 19.1683H2.91667C1.76833 19.1683 0.833333 18.2342 0.833333 17.085V12.9183C0.833333 11.7692 1.76833 10.835 2.91667 10.835H11.1317C11.8858 10.835 12.5 11.4492 12.5 12.2042C12.5 12.8808 11.995 13.4633 11.3342 13.5575L6.2 14.1717C5.97167 14.1983 5.80833 14.4058 5.83583 14.635C5.86417 14.8625 6.06417 15.035 6.29917 14.9992L11.4417 14.3842C12.2933 14.2625 12.98 13.6525 13.23 12.8642L16.9758 8.74833C17.2025 8.49917 17.5125 8.35333 17.8483 8.33833C18.18 8.32083 18.5067 8.43917 18.755 8.665C19.2617 9.12833 19.3033 9.92083 18.8467 10.4325L18.8483 10.43ZM4.33083 5.65167L3.76167 7.47583C3.62167 7.925 3.77917 8.41583 4.15667 8.69917C4.35 8.84417 4.58083 8.92083 4.8225 8.92083C5.0425 8.92083 5.25667 8.85583 5.44083 8.7325L7.0925 7.6275L8.775 8.7225C9.17083 8.97917 9.68583 8.95667 10.0592 8.67083C10.4333 8.38333 10.5842 7.88917 10.4367 7.44167L9.84667 5.645L11.2717 4.4825C11.6275 4.185 11.76 3.69 11.6008 3.25083C11.4417 2.815 11.0217 2.52083 10.5567 2.52083H8.76667L8.12583 0.7225C7.965 0.29 7.54667 0 7.08417 0C6.62167 0 6.20417 0.290833 6.04083 0.728333L5.40167 2.52083H3.61167C3.14833 2.52083 2.72917 2.81333 2.56917 3.24833C2.40917 3.68333 2.53917 4.17833 2.9 4.48417L4.33167 5.64917L4.33083 5.65167ZM3.35 3.53833C3.39 3.42917 3.495 3.35583 3.61083 3.35583H5.69417C5.87 3.35583 6.0275 3.245 6.08667 3.07917L6.8225 1.015C6.9025 0.798333 7.265 0.804167 7.34083 1.00917L8.07833 3.07833C8.1375 3.24417 8.295 3.355 8.47083 3.355H10.5542C10.6708 3.355 10.7758 3.42833 10.815 3.5375C10.855 3.6475 10.8217 3.77 10.7375 3.84083L9.095 5.17917C8.96083 5.28833 8.90833 5.46833 8.9625 5.6325L9.6425 7.7025C9.67917 7.815 9.6425 7.9375 9.54917 8.00917C9.455 8.08083 9.325 8.08667 9.22667 8.02333L7.31417 6.7775C7.17417 6.68667 6.99417 6.6875 6.855 6.78083L4.97583 8.03917C4.87833 8.10417 4.745 8.0975 4.65417 8.03167C4.56 7.96083 4.52 7.8375 4.55583 7.72417L5.20917 5.63C5.26 5.4675 5.20667 5.29 5.07417 5.1825L3.43 3.845C3.34167 3.76917 3.30833 3.64583 3.34833 3.5375L3.35 3.53833Z" fill="var(--fill-0, white)"/>
</svg>
