<svg preserveAspectRatio="none" width="100%" height="100%" overflow="visible" style="display: block;" viewBox="0 0 20 20" fill="none" xmlns="http://www.w3.org/2000/svg">
<g id="status-up">
<path id="Vector" d="M5.73333 15.125V13.4" stroke="var(--stroke-0, white)" stroke-linecap="round"/>
<path id="Vector_2" d="M10 15.125V11.675" stroke="var(--stroke-0, white)" stroke-linecap="round"/>
<path id="Vector_3" d="M14.2667 15.125V9.94167" stroke="var(--stroke-0, white)" stroke-linecap="round"/>
<path id="Vector_4" d="M14.2667 4.875L13.8833 5.325C11.7583 7.80833 8.90833 9.56667 5.73333 10.3583" stroke="var(--stroke-0, white)" stroke-linecap="round"/>
<path id="Vector_5" d="M11.825 4.875H14.2667V7.30833" stroke="var(--stroke-0, white)" stroke-linecap="round" stroke-linejoin="round"/>
<path id="Vector_6" d="M7.5 18.3333H12.5C16.6667 18.3333 18.3333 16.6667 18.3333 12.5V7.5C18.3333 3.33333 16.6667 1.66667 12.5 1.66667H7.5C3.33333 1.66667 1.66667 3.33333 1.66667 7.5V12.5C1.66667 16.6667 3.33333 18.3333 7.5 18.3333Z" stroke="var(--stroke-0, white)" stroke-linecap="round" stroke-linejoin="round"/>
<path id="Vector_7" opacity="0" d="M19.5 0.5V19.5H0.5V0.5H19.5Z" stroke="var(--stroke-0, white)"/>
</g>
</svg>
