<svg preserveAspectRatio="none" width="100%" height="100%" overflow="visible" style="display: block;" viewBox="0 0 361 365" fill="none" xmlns="http://www.w3.org/2000/svg">
<g id="Layer_1" clip-path="url(#clip0_0_4)">
<path id="Vector" fill-rule="evenodd" clip-rule="evenodd" d="M54.0725 53.6085C55.1196 52.5573 56.1667 51.5062 57.2138 50.455C57.5489 50.413 58.6379 49.2357 58.8892 48.9834C58.8892 48.9834 60.2295 47.6379 60.3551 47.5118H60.5646C61.6117 46.4607 62.8682 45.4095 63.9153 44.3584H64.1247L65.5907 43.097V42.8868C67.3079 41.6674 68.9414 40.1538 70.6168 38.8924H70.8262V38.6822C72.5435 37.589 74.1769 35.9912 75.8523 34.8981H76.0617C76.0617 34.8981 77.5696 33.7628 77.7371 33.6367V33.4264C79.6219 32.2912 81.5067 30.9037 83.3915 29.8526C85.1506 28.6332 87.1192 27.0775 89.0458 26.2787L90.7212 25.2275H90.9306L92.606 24.1764C92.983 23.882 94.0301 23.3354 94.4908 23.1252C94.4908 23.1252 96.208 22.1582 96.3756 22.0741H96.585C97.5064 21.2752 98.8467 20.7286 99.9357 20.182C100.606 19.8456 101.611 19.3831 102.239 18.9206C283.389 -67.9881 449.25 164.778 307.933 308.49C256.792 366.472 191.955 362.73 122.176 362.94H124.27L124.48 258.624H124.27L180.982 256.942C245.609 258.119 282.3 172.094 234.593 127.399C169.84 71.7723 101.653 124.834 104.082 199.297L103.873 199.508C103.957 200.979 103.58 202.451 103.663 203.922C103.203 204.889 103.705 206.109 103.245 207.076C103.328 209.178 102.993 211.322 102.826 213.383C102.868 215.022 102.491 216.915 102.616 218.47C102.323 219.647 102.407 220.825 102.407 221.834C102.281 222.801 102.114 223.642 102.197 224.567C101.779 225.954 102.239 227.72 101.779 229.024C101.695 230.243 101.988 231.462 101.569 232.556C101.653 234.279 101.234 236.087 101.36 237.811H0.209421C-1.21464 172.977 2.93189 100.195 54.0725 53.6085Z" fill="url(#paint0_linear_0_4)"/>
<path id="Vector_2" d="M52.5228 365C81.5303 365 105.046 341.394 105.046 312.274C105.046 283.155 81.5303 259.549 52.5228 259.549C23.5153 259.549 0 283.155 0 312.274C0 341.394 23.5153 365 52.5228 365Z" fill="url(#paint1_linear_0_4)"/>
</g>
<defs>
<linearGradient id="paint0_linear_0_4" x1="21.0259" y1="420.837" x2="371.613" y2="-101.638" gradientUnits="userSpaceOnUse">
<stop offset="0.44" stop-color="#883FE2"/>
<stop offset="1" stop-color="#E6F7FF"/>
</linearGradient>
<linearGradient id="paint1_linear_0_4" x1="11.6019" y1="334.138" x2="104.533" y2="284.821" gradientUnits="userSpaceOnUse">
<stop offset="0.44" stop-color="#883FE2"/>
<stop offset="0.54" stop-color="#8942E2"/>
<stop offset="0.62" stop-color="#8F4CE4"/>
<stop offset="0.7" stop-color="#985EE6"/>
<stop offset="0.77" stop-color="#A477EA"/>
<stop offset="0.85" stop-color="#B497EF"/>
<stop offset="0.92" stop-color="#C8BEF6"/>
<stop offset="0.98" stop-color="#E0EBFD"/>
<stop offset="1" stop-color="#E6F7FF"/>
</linearGradient>
<clipPath id="clip0_0_4">
<rect width="361" height="365" fill="white"/>
</clipPath>
</defs>
</svg>
