<svg xmlns="http://www.w3.org/2000/svg" viewBox="0 0 513 519" fill="none" role="img" aria-label="Bestie">
  <defs>
    <linearGradient id="bestieIconBody" x1="29.879" y1="598.395" x2="528.5" y2="-144.241" gradientUnits="userSpaceOnUse">
      <stop offset="0.44" stop-color="#883FE2"/>
      <stop offset="1" stop-color="#E6F7FF"/>
    </linearGradient>
    <linearGradient id="bestieIconDot" x1="16.4869" y1="475.117" x2="148.582" y2="405.059" gradientUnits="userSpaceOnUse">
      <stop offset="0.44" stop-color="#883FE2"/>
      <stop offset="0.54" stop-color="#8942E2"/>
      <stop offset="0.62" stop-color="#8F4CE4"/>
      <stop offset="0.7" stop-color="#985EE6"/>
      <stop offset="0.77" stop-color="#A477EA"/>
      <stop offset="0.85" stop-color="#B497EF"/>
      <stop offset="0.92" stop-color="#C8BEF6"/>
      <stop offset="0.98" stop-color="#E0EBFD"/>
      <stop offset="1" stop-color="#E6F7FF"/>
    </linearGradient>
    <clipPath id="bestieIconClip">
      <rect width="513" height="519"/>
    </clipPath>
  </defs>
  <g clip-path="url(#bestieIconClip)">
    <path fill-rule="evenodd" clip-rule="evenodd" d="M76.84 76.2267C78.328 74.7321 79.816 73.2374 81.304 71.7428C81.7801 71.683 83.3277 70.009 83.6848 69.6503C83.6848 69.6503 85.5894 67.7371 85.768 67.5578H86.0656C87.5535 66.0631 89.3391 64.5685 90.8271 63.0738H91.1247L93.2079 61.2803V60.9813C95.6482 59.2476 97.9695 57.0953 100.35 55.3017H100.648V55.0028C103.088 53.4483 105.409 51.1765 107.79 49.622H108.088C108.088 49.622 110.231 48.0078 110.469 47.8285V47.5295C113.147 45.9153 115.825 43.9424 118.504 42.4478C121.004 40.714 123.801 38.5019 126.539 37.366L128.92 35.8713H129.217L131.598 34.3767C132.134 33.9582 133.622 33.181 134.276 32.882C134.276 32.882 136.717 31.507 136.955 31.3874H137.252C138.562 30.2515 140.467 29.4743 142.014 28.697C142.966 28.2188 144.395 27.5611 145.288 26.9035C402.71 -96.6736 638.408 234.3 437.589 438.648C364.915 521.092 272.779 515.771 173.619 516.07H176.595L176.893 367.742H176.595L257.185 365.35C349.023 367.024 401.163 244.703 333.37 181.151C241.352 102.054 144.454 177.504 147.907 283.384L147.609 283.683C147.728 285.776 147.192 287.868 147.311 289.961C146.657 291.336 147.371 293.07 146.716 294.445C146.835 297.434 146.359 300.483 146.121 303.412C146.18 305.744 145.645 308.434 145.823 310.647C145.407 312.321 145.526 313.995 145.526 315.429C145.347 316.804 145.109 318 145.228 319.315C144.633 321.288 145.288 323.799 144.633 325.653C144.514 327.387 144.931 329.12 144.335 330.675C144.454 333.126 143.859 335.697 144.038 338.148H0.29771C-1.72596 245.958 4.16649 142.469 76.84 76.2267Z" fill="url(#bestieIconBody)"/>
    <path d="M74.6376 519C115.859 519 149.275 485.434 149.275 444.029C149.275 402.623 115.859 369.057 74.6376 369.057C33.4164 369.057 0 402.623 0 444.029C0 485.434 33.4164 519 74.6376 519Z" fill="url(#bestieIconDot)"/>
  </g>
</svg>
