<svg width="18" height="18" viewBox="0 0 18 18" fill="none" xmlns="http://www.w3.org/2000/svg">
<g clip-path="url(#clip0_47_542)">
<path d="M17.9999 8.43518C17.8914 6.6802 17.2717 4.99532 16.2173 3.58825C15.1628 2.18119 13.7196 1.11345 12.0657 0.516681C10.4117 -0.0800926 8.61925 -0.179815 6.90929 0.229806C5.19934 0.639428 3.64663 1.54049 2.44258 2.8219C1.23854 4.10331 0.4358 5.70906 0.133326 7.44118C-0.169148 9.1733 0.0418673 10.9561 0.740357 12.5697C1.43885 14.1834 2.59428 15.5573 4.0642 16.5222C5.53413 17.4872 7.25429 18.0008 9.01262 17.9999H14.2499C15.2441 17.9989 16.1974 17.6035 16.9004 16.9005C17.6035 16.1974 17.9989 15.2442 17.9999 14.2499V8.43518ZM16.4999 14.2499C16.4999 14.8467 16.2628 15.419 15.8409 15.8409C15.4189 16.2629 14.8466 16.4999 14.2499 16.4999H9.01262C7.95432 16.4995 6.908 16.2759 5.94189 15.8439C4.97578 15.4119 4.11158 14.7811 3.40562 13.9927C2.69625 13.2046 2.16357 12.274 1.84329 11.2633C1.52301 10.2525 1.42254 9.18495 1.54862 8.13218C1.7477 6.47164 2.49376 4.92458 3.6692 3.73488C4.84464 2.54518 6.3826 1.78052 8.04062 1.56143C8.36405 1.5209 8.68966 1.50036 9.01562 1.49993C10.7635 1.49517 12.4572 2.10586 13.7999 3.22493C14.584 3.87664 15.2277 4.6808 15.6918 5.58866C16.1559 6.49651 16.4308 7.48916 16.4999 8.50643V14.2499Z" fill="#0C1013"/>
<path d="M5.99988 6.75H8.99988C9.19879 6.75 9.38956 6.67098 9.53021 6.53033C9.67086 6.38968 9.74988 6.19891 9.74988 6C9.74988 5.80109 9.67086 5.61032 9.53021 5.46967C9.38956 5.32902 9.19879 5.25 8.99988 5.25H5.99988C5.80097 5.25 5.6102 5.32902 5.46955 5.46967C5.3289 5.61032 5.24988 5.80109 5.24988 6C5.24988 6.19891 5.3289 6.38968 5.46955 6.53033C5.6102 6.67098 5.80097 6.75 5.99988 6.75Z" fill="#0C1013"/>
<path d="M11.9999 8.25H5.99988C5.80097 8.25 5.6102 8.32902 5.46955 8.46967C5.3289 8.61032 5.24988 8.80109 5.24988 9C5.24988 9.19892 5.3289 9.38968 5.46955 9.53034C5.6102 9.67099 5.80097 9.75001 5.99988 9.75001H11.9999C12.1988 9.75001 12.3896 9.67099 12.5302 9.53034C12.6709 9.38968 12.7499 9.19892 12.7499 9C12.7499 8.80109 12.6709 8.61032 12.5302 8.46967C12.3896 8.32902 12.1988 8.25 11.9999 8.25Z" fill="#0C1013"/>
<path d="M11.9999 11.25H5.99988C5.80097 11.25 5.6102 11.329 5.46955 11.4697C5.3289 11.6103 5.24988 11.8011 5.24988 12C5.24988 12.1989 5.3289 12.3897 5.46955 12.5303C5.6102 12.671 5.80097 12.75 5.99988 12.75H11.9999C12.1988 12.75 12.3896 12.671 12.5302 12.5303C12.6709 12.3897 12.7499 12.1989 12.7499 12C12.7499 11.8011 12.6709 11.6103 12.5302 11.4697C12.3896 11.329 12.1988 11.25 11.9999 11.25Z" fill="#0C1013"/>
</g>
<defs>
<clipPath id="clip0_47_542">
<rect width="18" height="18" fill="white"/>
</clipPath>
</defs>
</svg>
